<?xml version="1.0" encoding="utf-8"?>
<!-- Generator: Adobe Illustrator 28.0.0, SVG Export Plug-In . SVG Version: 6.00 Build 0)  -->
<svg version="1.1" xmlns="http://www.w3.org/2000/svg" xmlns:xlink="http://www.w3.org/1999/xlink" x="0px" y="0px"
	 viewBox="0 0 300 300" style="enable-background:new 0 0 300 300;" xml:space="preserve">
<style type="text/css">
	.st0{fill:#F8E3B8;}
	.st1{fill:#11544C;}
	.st2{fill:#EE3F23;}
</style>
<g id="Layer_1">
	<g>
		<path class="st0" d="M128.18,274.4L25.61,171.83c-12-12-12-31.64,0-43.65L128.18,25.62c12-12,31.64-12,43.65,0l102.57,102.57
			c12,12,12,31.64,0,43.65L171.82,274.4C159.82,286.41,140.18,286.41,128.18,274.4z"/>
		<path class="st1" d="M150,286.11c-8.99,0-17.42-3.48-23.73-9.79L23.7,173.74c-6.32-6.32-9.79-14.74-9.79-23.73
			s3.48-17.42,9.79-23.73L126.27,23.71c13.09-13.08,34.38-13.09,47.47,0L276.3,126.28c6.31,6.32,9.79,14.74,9.79,23.73
			s-3.48,17.42-9.79,23.73L173.73,276.32C167.42,282.63,158.99,286.11,150,286.11z M150,19.29c-7.21,0-14.42,2.74-19.91,8.23
			L27.52,130.1c-5.29,5.29-8.21,12.37-8.21,19.91c0,7.55,2.92,14.62,8.21,19.91l102.57,102.57c10.98,10.98,28.85,10.98,39.82,0
			l102.57-102.57c5.3-5.29,8.21-12.37,8.21-19.91c0-7.55-2.92-14.62-8.21-19.91L169.91,27.53C164.42,22.04,157.21,19.29,150,19.29z"
			/>
	</g>
	<path class="st1" d="M185.61,127.53c-0.31-1.51-1.3-5.27-4.6-8.64c-3.3-3.38-7.03-4.45-8.53-4.8c1.51-0.31,5.27-1.3,8.64-4.6
		c3.38-3.3,4.45-7.03,4.8-8.53c0.31,1.51,1.3,5.27,4.6,8.64c3.3,3.38,7.03,4.45,8.53,4.8c-1.51,0.31-5.27,1.3-8.64,4.6
		C187.03,122.3,185.96,126.03,185.61,127.53z"/>
	<path class="st1" d="M119.37,186.19c-0.31-1.51-1.3-5.27-4.6-8.64c-3.3-3.38-7.03-4.45-8.53-4.8c1.51-0.31,5.27-1.3,8.64-4.6
		c3.38-3.3,4.45-7.03,4.8-8.53c0.31,1.51,1.3,5.27,4.6,8.64s7.03,4.45,8.53,4.8c-1.51,0.31-5.27,1.3-8.64,4.6
		C120.79,180.95,119.72,184.68,119.37,186.19z"/>
</g>
<g id="Layer_2">
	<g>
		<g>
			<g>
				<path class="st2" d="M156.43,79.67c1.33,0,1.64,0.47,1.72,1.56l0.78,11.74l1.25,22.54l1.17,15.73c0.31,3.83,1.8,5.09,4.07,5.16
					c0.47,0,1.64,0.08,1.17,1.56l-0.55,1.88c-0.31,1.09-0.86,1.56-1.96,1.56c-5.01-0.31-11.58-0.55-16.98,0
					c-0.55,0-1.56-0.16-1.17-1.56l0.55-1.88c0.31-1.33,0.94-1.49,1.96-1.56c2.66-0.23,2.43-1.17,2.27-6.18l-0.16-3.76
					c0-1.1-0.55-1.56-1.64-1.56h-14.79c-1.1,0-1.72,0.39-2.27,1.41l-1.96,4.15c-7.2,15.1-21.99,28.33-38.58,28.33
					c-15.34,0-28.79-8.69-28.17-23.55c0.55-11.58,11.03-20.5,24.02-20.5c6.65,0,13.15,3.13,13.22,8.53
					c-0.16,3.91-2.97,6.18-5.48,6.18c-1.49,0-2.9-0.78-3.68-2.03c0.94-0.63,1.41-1.96,1.41-3.21c0.16-2.82-1.88-5.63-6.02-5.63
					c-6.5,0-12.44,6.34-12.83,15.57c-0.47,11.11,6.65,19.48,18,19.48c14.63,0,26.21-12.91,32.32-25.51l18.94-39.05
					c2.03-4.3-4.85-4.85-16.12-4.3c-11.19,0.55-22.85,8.69-22.85,19.95c0,6.65,3.99,11.35,9.31,11.35c4.46,0,6.89-3.29,6.89-6.18
					c0-1.02-0.31-1.96-1.09-2.42c3.21-4.15,9.7-2.19,8.76,4.07c-1.02,5.79-8.37,8.69-14.79,8.69c-9.31,0-18.47-6.1-18.47-16.98
					c0-14.63,16.75-23.4,32.55-23.4h15.18C155.02,79.83,155.73,79.67,156.43,79.67z M86.32,120.13c1.33,0,2.43,0.39,3.21,1.1
					c-0.31-0.08-0.55-0.08-0.86-0.08c-6.5,0-12.44,6.34-12.83,15.57c-0.08,1.64,0,3.21,0.24,4.62c-0.7-2.19-1.1-4.62-0.94-7.2
					c0.16-3.99,1.49-7.67,3.68-10.25C80.92,121.46,83.58,120.13,86.32,120.13z M93.36,161.36c-5.24,0-10.17-1.02-14.48-2.9
					c3.68,1.25,7.83,1.88,12.13,1.88c8.14,0,16.35-3.05,23.79-8.84c3.36-2.66,6.49-5.79,9.31-9.31c2.74-3.44,5.09-7.2,6.96-11.11
					l1.88-4.07c0.31-0.55,0.39-0.55,0.86-0.55h14.79v1.02h-12.44c-1.1,0-1.72,0.39-2.27,1.41l-1.96,4.15
					C124.74,148.14,109.95,161.36,93.36,161.36z M101.74,123.02c0.39,0.86,0.63,1.8,0.7,2.82c-0.16,3.91-2.97,6.18-5.48,6.18
					c-1.1,0-2.03-0.39-2.82-1.02h0.47c1.72,0,3.44-0.78,4.77-2.11c1.41-1.41,2.27-3.44,2.35-5.63V123.02z M106.12,107.3
					c0,0.7,0,1.33,0.08,1.96c-0.55-1.33-0.78-2.89-0.78-4.62c0-10.33,10.95-17.84,21.28-18.31c2.35-0.08,4.38-0.16,6.1-0.16
					c2.74,0,4.85,0.16,6.34,0.39c1.88,0.39,2.19,0.86,2.27,0.94v0.08c-2.9-0.47-7.2-0.47-12.44-0.23
					C117.78,87.89,106.12,96.03,106.12,107.3z M125.99,119.74l-0.08,0.08c-2.89,1.96-6.96,2.97-10.72,2.97
					c-3.13,0-6.18-0.7-8.92-1.96c2.11,0.63,4.3,0.94,6.57,0.94c1.72,0,3.52-0.16,5.24-0.55c1.8-0.47,3.44-1.02,4.93-1.8
					c1.33-0.7,2.35-1.41,3.29-2.35L125.99,119.74z M149.07,90.08l-13.07,27.62c-0.55,1.02-0.23,1.41,0.86,1.41h11.82
					c1.09,0,1.56-0.47,1.49-1.56l-0.94-24.57L149.07,90.08z M139.37,117.39h-1.8l9.86-20.74l0.08,3.52L139.37,117.39z
					 M167.31,140.24l0.31-1.25c0.55,0.08,1.41,0.31,1.02,1.57l-0.55,1.88c-0.31,1.09-0.86,1.56-1.96,1.56
					c-5.01-0.31-11.58-0.55-16.98,0c-0.47,0-1.33-0.08-1.25-1.1c1.88-0.16,3.99-0.23,6.34-0.23c2.82,0,5.95,0.08,9.39,0.31h0.16
					c0.94,0,1.64-0.23,2.27-0.7C166.6,141.8,167.07,141.1,167.31,140.24z M159.56,82.49c0.39,0.23,0.55,0.63,0.63,1.33l0.78,11.74
					l1.25,22.54l1.17,15.73c-0.39-0.55-0.63-1.41-0.7-2.82l-1.17-15.65l-1.25-22.54C160.26,92.82,160.26,92.82,159.56,82.49z"/>
			</g>
		</g>
		<g>
			<path class="st2" d="M151.46,161.05c0.55-3.62,0.39-6.21-4.48-6.21c-0.55,0-1.57-0.16-1.34-1.57l0.39-1.89
				c0.16-1.1,0.71-1.57,1.81-1.57c2.12,0.24,11.64,0.71,17.3,0c1.57,0,1.97,0.39,2.44,1.34l4.17,25.63
				c6.13-11.48,12.97-25.79,18.24-33.5c7.78-11.48,16.2-16.83,27.36-16.83c10.14,0,17.22,5.58,17.22,11.79
				c0,4.8-3.46,7.55-6.92,7.55c-2.59,0-4.72-1.34-5.66-3.54c1.89,0,2.91-2.44,2.91-3.93c0-3.3-2.44-6.53-7.08-6.53
				c-9.91,0-16.98,7-23.67,17.06c-0.47,0.71-0.63,1.34,0.16,1.34c2.67,0.08,5.66-0.08,9.36-0.39c1.1-0.08,1.49,0.47,1.34,1.57
				l-0.39,1.89c-0.16,1.1-0.71,1.57-1.81,1.57c-3.07,0-4.01,2.59-4.8,6.21c-1.97,8.57-3.46,17.3-4.8,27.05
				c-0.47,3.54-0.55,6.21,2.59,6.21c1.1,0,1.49,0.47,1.34,1.57l-0.39,1.89c-0.16,1.1-0.71,1.57-1.81,1.57
				c-5.82-0.55-11.64-0.55-17.61,0c-0.55,0-1.57-0.16-1.34-1.57l0.39-1.89c0.16-1.1,0.71-1.57,1.81-1.57c2.99,0,4.01-2.59,4.8-6.21
				c2.99-15.96,4.25-23.43,4.8-27.05v-0.24h-0.55l-5.11,9.51l-14.78,27.76h-1.73l-7.55-38.06l-0.16,1.02
				c-0.79,3.3-2.2,10.93-3.22,17.14l-1.18,6.92c-3.54,20.44-7.55,39.31-27.91,40.49c-6.92,0.39-17.61-3.7-17.61-12.42
				c0-4.8,3.46-7.55,6.92-7.55c2.59,0,4.72,1.34,5.66,3.54c-1.89,0-2.91,2.44-2.91,3.93c0,3.85,3.15,7.08,7.78,7.08
				c16.91,0,19.66-23.75,23.2-41.91C149.73,172.06,151.07,164.36,151.46,161.05z M157.91,168.44l0.63,3.3
				c-0.55,2.91-1.1,6.13-1.57,9.04l-1.18,6.92c-3.54,20.44-7.55,39.31-27.91,40.49c-0.31,0-0.63,0.08-0.94,0.08
				c-2.75,0-5.98-0.71-8.88-2.04c2.12,0.63,4.32,1.02,6.45,1.02c0.39,0,0.71-0.08,1.02-0.08c21.54-1.26,25.79-20.76,29.49-41.83
				l1.18-6.92C156.18,178.19,156.89,173.79,157.91,168.44z M121.74,210.12c0.47,0.47,0.79,1.02,1.1,1.65
				c-1.89,0-2.91,2.44-2.91,3.93v0.16c-0.47-0.86-0.79-1.81-0.79-2.83C119.15,210.9,120.56,210.27,121.74,210.12z M149.73,157.44
				h-0.47c-0.47,0-1.26-0.08-1.34-0.94C149.34,156.65,149.58,157.12,149.73,157.44z M184.65,168.76c-0.24,1.65-0.63,3.54-0.94,5.5
				l-14.08,26.42h-1.73l-0.24-1.1c0.39-0.08,0.79-0.39,1.02-0.79l14.7-27.76L184.65,168.76z M172.46,171.35l-3.07-18.32
				c0.16,0.24,0.79,0.87,0.94,1.1l2.67,16.35L172.46,171.35z M198.25,198.01l0.16-1.1c0.71,0.08,1.02,0.47,1.02,1.18v0.39
				l-0.39,1.89c-0.16,1.1-0.71,1.57-1.81,1.57c-2.91-0.24-5.82-0.39-8.73-0.39c-2.99,0-5.9,0.16-8.88,0.39
				c-0.47,0-1.34-0.08-1.34-1.1c2.59-0.24,5.19-0.31,7.78-0.31c4.95,0,8.41,0.39,8.73,0.39
				C195.65,200.92,197.78,200.68,198.25,198.01z M206.11,153.5l0.24-1.1c0.63,0.08,0.94,0.47,0.94,1.18v0.39l-0.39,1.89
				c-0.16,1.1-0.71,1.57-1.81,1.57c-3.07,0-4.01,2.59-4.8,6.21c-1.97,8.57-3.46,17.3-4.8,27.05c-0.08,0.71-0.16,1.26-0.24,1.89
				c-0.55-0.08-0.79-0.24-0.79-1.73c0-0.79,0.08-1.73,0.24-2.59c4.64-33.73,6.6-31.84,7.94-31.84
				C203.52,156.41,205.64,156.18,206.11,153.5z M217.67,133.38c1.49,0,2.75,0.47,3.62,1.1c-0.39-0.08-0.79-0.08-1.18-0.08
				c-8.88,0-15.49,5.66-21.54,14c-0.87,0.08-1.65,0.08-2.36,0.08C203.44,137.94,209.96,133.38,217.67,133.38z M236.85,140.84
				c0,4.8-3.46,7.55-6.92,7.55c-1.42,0-2.67-0.39-3.7-1.1c0.39,0.08,0.79,0.08,1.26,0.08c3.38,0,8.57-2.52,8.57-9.2
				c0-0.31,0-0.63-0.08-0.94C236.54,138.41,236.85,139.59,236.85,140.84z"/>
		</g>
	</g>
</g>
</svg>
