<?xml version="1.0" encoding="utf-8"?>
<!-- Generator: Adobe Illustrator 28.0.0, SVG Export Plug-In . SVG Version: 6.00 Build 0)  -->
<svg version="1.1" id="Layer_1" xmlns="http://www.w3.org/2000/svg" xmlns:xlink="http://www.w3.org/1999/xlink" x="0px" y="0px"
	 viewBox="0 0 720 720" style="enable-background:new 0 0 720 720;" xml:space="preserve">
<style type="text/css">
	.st0{fill:#D4A556;}
</style>
<g>
	<g>
		<path class="st0" d="M579.94,461.96c-3.05-19.02-11.64-36.02-19.75-53.13c-14.1-29.75-25.34-60.44-31.08-92.92
			c-2.22-12.56-3.73-25.31-4.66-38.04c-4.87-66.44-50.53-131.55-126.23-145.16c-65.69-11.81-131.07,17.14-164.3,81.22
			c-10.41,20.09-16.28,41.39-17.83,63.9c-3.22,47.11-16.63,91.35-37.12,133.68c-7.6,15.71-15.23,31.47-18.29,48.92
			c-0.51,2.88-1.27,5.73-1.91,8.59v13c0.63,2.67,1.32,5.32,1.88,8c5.33,25.54,19.88,45.55,38.57,62.72
			C236.51,587,280.83,607,330.44,615.65c9.13,1.59,18.44,2.07,27.66,3.15c1.59,0.18,3.12,0.81,4.67,1.24h16
			c5.87-0.77,11.72-1.68,17.61-2.28c27.04-2.78,52.84-10.22,77.6-21.23c30.48-13.54,57.96-31.45,79.98-56.89
			c12.83-14.82,22.5-31.35,25.93-51c0.67-3.87,1.25-7.75,1.88-11.62v-4C581.16,469.33,580.52,465.65,579.94,461.96z M238.86,439.61
			c-13.95,30.83-15.22,61.78-1.57,93.46c1.71,3.96-3.15,7.42-6.33,4.52c-11.66-10.66-22.26-31.18-21-55.53
			c0.82-15.82,11.13-36.46,22.59-47.03C235.76,432.08,240.66,435.64,238.86,439.61z M285.25,464.44c-0.46,1.01-0.9,2.03-1.33,3.04
			c-0.65,1.52-1.27,3.04-1.85,4.56c-0.22,0.57-0.43,1.13-0.63,1.7c-0.25,0.67-0.49,1.33-0.72,1.99c-0.21,0.59-0.41,1.17-0.6,1.76
			c-0.42,1.23-0.81,2.45-1.17,3.68c-0.58,1.91-1.1,3.81-1.57,5.71c-0.16,0.63-0.31,1.25-0.45,1.88c-0.16,0.67-0.31,1.35-0.45,2.02
			c-0.12,0.58-0.24,1.16-0.35,1.74c-0.13,0.63-0.24,1.26-0.35,1.88c-0.22,1.18-0.41,2.36-0.58,3.54c-0.01,0.08-0.02,0.15-0.03,0.22
			c-0.09,0.63-0.17,1.26-0.25,1.89c-0.07,0.55-0.14,1.11-0.19,1.66c-0.21,1.8-0.36,3.61-0.46,5.41c-0.02,0.34-0.04,0.67-0.05,1.01
			c-0.03,0.45-0.05,0.9-0.06,1.35c-0.02,0.63-0.04,1.26-0.05,1.89s-0.02,1.25-0.02,1.88v0.01c0,0.92,0.01,1.84,0.04,2.76
			c0.02,0.92,0.06,1.85,0.11,2.77c0.05,0.93,0.11,1.85,0.18,2.78c0.06,0.72,0.12,1.45,0.2,2.18c0.03,0.36,0.07,0.73,0.12,1.11
			c0.05,0.52,0.11,1.04,0.19,1.57c0.04,0.43,0.1,0.87,0.17,1.32c0.08,0.58,0.16,1.16,0.26,1.75c0.03,0.25,0.07,0.5,0.12,0.76
			c0.1,0.67,0.22,1.34,0.35,2.01c0.03,0.23,0.08,0.47,0.13,0.7c0.15,0.84,0.32,1.68,0.5,2.51c0.2,0.93,0.41,1.86,0.63,2.79
			c0.23,0.94,0.46,1.87,0.71,2.8c0.18,0.66,0.37,1.33,0.56,2c0.11,0.39,0.22,0.78,0.35,1.18c0.23,0.78,0.47,1.57,0.72,2.36
			c0.01,0.02,0.02,0.04,0.02,0.06c0.26,0.81,0.54,1.63,0.82,2.44c0.39,1.15,0.81,2.31,1.26,3.46c0.31,0.84,0.64,1.68,0.98,2.52
			c0.34,0.87,0.7,1.73,1.07,2.59c0.03,0.08,0.07,0.15,0.1,0.23c1.71,3.95-3.15,7.41-6.33,4.51c-1.38-1.26-2.74-2.66-4.07-4.18
			c-0.33-0.38-0.66-0.77-0.99-1.17c-0.34-0.4-0.67-0.81-1-1.23c-0.31-0.41-0.63-0.82-0.94-1.24c-0.37-0.49-0.72-0.98-1.08-1.49
			c-0.26-0.38-0.53-0.77-0.79-1.17c-0.92-1.37-1.81-2.81-2.66-4.31c-0.27-0.5-0.55-1-0.82-1.51c-0.28-0.51-0.55-1.03-0.81-1.56
			c-0.24-0.47-0.47-0.95-0.71-1.44c-2.09-4.41-3.84-9.24-5.09-14.4c-0.14-0.56-0.27-1.13-0.39-1.69c-0.12-0.55-0.23-1.09-0.34-1.64
			c-0.23-1.14-0.42-2.28-0.59-3.44c-0.06-0.41-0.12-0.82-0.17-1.23c-0.06-0.46-0.12-0.92-0.17-1.38c-0.03-0.24-0.06-0.48-0.08-0.73
			c-0.05-0.44-0.09-0.88-0.12-1.32c-0.03-0.25-0.05-0.5-0.06-0.74c-0.04-0.5-0.08-1.01-0.1-1.51c-0.04-0.7-0.07-1.39-0.09-2.09
			c-0.02-0.7-0.03-1.4-0.03-2.11c0-1.31,0.03-2.62,0.1-3.95c0.02-0.43,0.05-0.87,0.09-1.31c0.03-0.37,0.07-0.75,0.11-1.13
			c0.04-0.37,0.08-0.75,0.13-1.13c0.04-0.3,0.08-0.59,0.13-0.89c0.01-0.06,0.02-0.12,0.02-0.18c0.08-0.5,0.16-0.99,0.26-1.49
			c0-0.02,0-0.04,0.01-0.06c0.09-0.5,0.19-1.01,0.3-1.52c0.11-0.53,0.23-1.06,0.36-1.6c0.26-1.11,0.56-2.23,0.89-3.36
			c0.15-0.5,0.3-0.99,0.46-1.49c0.35-1.1,0.72-2.2,1.13-3.3c0.18-0.5,0.37-1,0.57-1.5c0.03-0.09,0.07-0.19,0.11-0.28
			c0.18-0.48,0.37-0.95,0.57-1.42c0.4-0.98,0.83-1.96,1.28-2.93c0.13-0.3,0.27-0.59,0.41-0.89c0.15-0.33,0.31-0.67,0.48-1
			c0.26-0.53,0.52-1.05,0.79-1.58c0.18-0.36,0.36-0.72,0.56-1.08c0.13-0.25,0.27-0.51,0.41-0.76c0.07-0.13,0.14-0.27,0.22-0.4
			c0.15-0.29,0.31-0.57,0.47-0.86c1.33-2.37,2.76-4.66,4.26-6.82c0.19-0.27,0.38-0.54,0.57-0.8c0.4-0.56,0.8-1.11,1.21-1.65
			c0.71-0.94,1.43-1.85,2.17-2.72c0.23-0.28,0.46-0.55,0.69-0.81c0.7-0.81,1.42-1.58,2.13-2.31c0.24-0.25,0.49-0.49,0.73-0.73
			c0.35-0.35,0.71-0.68,1.06-1.01l0.01-0.01h0.01C282.16,456.92,287.05,460.47,285.25,464.44z M407.69,510.24l-0.01,8.82l-1.04,3.63
			l-2.01,3.1l-3.34,3.33l-1.43,1.15l-4.27,4.51l-3.06,1.43l-5.9,1.93l-8.43,1.13h-17.36l-4.08,1.46l-1.34,10.41l0.28,1.57
			l-0.01,0.05l-0.12,3.08l-0.07,1.8l-0.22,2.25l0.1,0.91l-0.1,2.6l0.44,2.9l-0.03,0.46l-0.33,1.16l-0.72,2.57l-1.39,2.04l-2.65,1.85
			l-5.54-0.51l-1.8-2.23l-1.77-3.28l-0.31-2.94l0.45-0.42l0.46-0.44l0.35-1.48l-1.09-3.88v-4.92l1.23-5.48l-1.25-3.98l1.11-4.31
			l-0.82-3.49v-3.15l1.89-3.07l-1.89-4.25v-8.4l1.49-2.46l-1.8-5.36l1.66-3.95l-1.67-4.14l1.45-3.15l0.24-1.63l-0.66-0.96
			l-0.87-3.49l1.11-2.99l-1.08-3.17l0.04-9.89l1.03-2.35l3.59-2.46l3.28-3.11l27.31,0.02l2.3,0.62l6.07,0.02l6.53,2.23l4.37,2.08
			l3.68,2.41l1.47,2.35v1.91l3.08,1.68l3.73,7.6l0.57,4.06l-0.68,2.94l1.08,2.37l0.43,3.26L407.69,510.24z M370,419.4
			c-56.47,0-106.92-35.38-124.47-87.27c-19.42-57.41,7.01-121.46,61.55-149.72c20.68-10.71,42.61-16.15,65.76-15.59
			c60.9,1.46,113.35,42.35,126.01,102.17c11.06,52.32-15.86,108.54-64.29,134.05C413.39,414.19,392.82,419.4,370,419.4z
			 M484.29,512.95c-0.02,0.7-0.05,1.39-0.09,2.09c-0.02,0.5-0.06,1.01-0.1,1.51c-0.01,0.24-0.03,0.49-0.06,0.74
			c-0.03,0.44-0.07,0.88-0.12,1.32c-0.02,0.25-0.05,0.49-0.08,0.73c-0.05,0.46-0.11,0.92-0.17,1.38c-0.05,0.41-0.11,0.82-0.17,1.23
			c-0.17,1.16-0.36,2.3-0.59,3.44c-0.11,0.55-0.22,1.09-0.34,1.64c-0.12,0.56-0.25,1.13-0.39,1.69c-1.25,5.16-3,9.99-5.09,14.4
			c-0.24,0.49-0.47,0.97-0.71,1.44c-0.27,0.53-0.53,1.05-0.81,1.56c-0.27,0.51-0.55,1.01-0.82,1.51c-0.85,1.5-1.74,2.94-2.66,4.31
			c-0.26,0.4-0.53,0.79-0.79,1.17c-0.36,0.51-0.71,1-1.08,1.49c-0.31,0.42-0.63,0.83-0.94,1.24c-0.33,0.42-0.66,0.83-1,1.23
			c-0.33,0.4-0.66,0.79-0.99,1.17c-1.33,1.52-2.69,2.92-4.07,4.18c-0.52,0.48-1.09,0.79-1.67,0.94c-0.11,0.04-0.23,0.06-0.34,0.08
			c-0.12,0.01-0.24,0.03-0.35,0.04c-0.37,0.03-0.73,0.01-1.08-0.06c-0.1-0.02-0.18-0.04-0.28-0.07c-0.25-0.06-0.48-0.15-0.71-0.26
			c-0.09-0.05-0.17-0.1-0.26-0.15c-0.15-0.08-0.28-0.18-0.42-0.28c0,0,0,0-0.01,0c-0.13-0.1-0.26-0.21-0.38-0.33
			c-0.12-0.12-0.23-0.25-0.33-0.38c-0.01-0.01,0-0.01,0-0.01c-0.08-0.08-0.14-0.16-0.2-0.25c-0.03-0.05-0.07-0.1-0.09-0.16
			c-0.06-0.07-0.1-0.15-0.14-0.22c-0.04-0.08-0.07-0.15-0.1-0.23c-0.07-0.14-0.12-0.28-0.16-0.43c-0.01-0.02-0.02-0.05-0.02-0.07
			c-0.05-0.15-0.08-0.3-0.1-0.46c-0.01-0.01-0.01-0.03-0.01-0.04c-0.03-0.17-0.04-0.34-0.04-0.52c0-0.53,0.11-1.09,0.36-1.65
			c0.03-0.08,0.07-0.15,0.1-0.23c0.37-0.86,0.73-1.72,1.07-2.59c0.34-0.84,0.67-1.68,0.98-2.52c0.45-1.15,0.87-2.31,1.26-3.46
			c0.28-0.81,0.56-1.63,0.82-2.44c0-0.02,0.01-0.04,0.02-0.06c0.25-0.79,0.49-1.58,0.72-2.36c0.13-0.4,0.24-0.79,0.35-1.18
			c0.19-0.67,0.38-1.34,0.56-2c0.25-0.93,0.48-1.86,0.71-2.8c0.22-0.93,0.43-1.86,0.63-2.79c0.18-0.83,0.35-1.67,0.5-2.51
			c0.05-0.23,0.1-0.47,0.13-0.7c0.13-0.67,0.25-1.34,0.35-2.01c0.05-0.26,0.09-0.51,0.12-0.76c0.1-0.59,0.18-1.17,0.26-1.75
			c0.07-0.45,0.13-0.89,0.17-1.32c0.08-0.53,0.14-1.05,0.19-1.57c0.05-0.38,0.09-0.75,0.12-1.11c0.08-0.73,0.14-1.46,0.2-2.18
			c0.07-0.93,0.13-1.85,0.18-2.78c0.05-0.92,0.09-1.85,0.11-2.77c0.03-0.92,0.04-1.84,0.04-2.76v-0.01c0-0.63-0.01-1.25-0.02-1.88
			c-0.01-0.63-0.03-1.26-0.05-1.89c-0.01-0.45-0.03-0.9-0.06-1.35c-0.01-0.34-0.03-0.67-0.05-1.01c-0.1-1.8-0.25-3.61-0.46-5.41
			c-0.05-0.55-0.12-1.11-0.19-1.66c-0.08-0.63-0.16-1.26-0.25-1.89c-0.01-0.07-0.02-0.14-0.03-0.22c-0.17-1.18-0.37-2.36-0.58-3.54
			c-0.11-0.62-0.22-1.25-0.35-1.88c-0.11-0.58-0.23-1.16-0.35-1.74c-0.14-0.67-0.29-1.35-0.45-2.02c-0.14-0.63-0.29-1.25-0.45-1.88
			c-0.47-1.9-0.99-3.8-1.57-5.71c-0.37-1.23-0.76-2.45-1.17-3.68c-0.19-0.59-0.39-1.17-0.6-1.76c-0.23-0.66-0.47-1.32-0.72-1.99
			c-0.2-0.57-0.41-1.13-0.63-1.7c-0.58-1.52-1.2-3.04-1.85-4.56c-0.43-1.01-0.87-2.03-1.33-3.04c-0.07-0.15-0.12-0.29-0.17-0.44
			c-0.19-0.55-0.25-1.09-0.2-1.59c0-0.11,0.01-0.21,0.04-0.31c0.01-0.1,0.03-0.2,0.06-0.29c0.04-0.2,0.11-0.39,0.19-0.57
			c0.03-0.09,0.08-0.18,0.13-0.27c0.01-0.01,0.01-0.02,0.01-0.03c0.09-0.17,0.19-0.32,0.3-0.47c0.05-0.08,0.11-0.16,0.18-0.23
			c0.06-0.08,0.13-0.15,0.2-0.22c0.06-0.07,0.13-0.14,0.21-0.2c0.07-0.07,0.14-0.13,0.22-0.2c0.15-0.12,0.32-0.23,0.49-0.32h0.01
			c0.17-0.1,0.35-0.18,0.53-0.25c0.11-0.04,0.21-0.07,0.32-0.11c0.11-0.03,0.22-0.06,0.33-0.08c0.46-0.1,0.95-0.11,1.43-0.02
			c0.11,0.02,0.23,0.04,0.34,0.08c0.58,0.15,1.15,0.46,1.68,0.95h0.01l0.01,0.01c0.35,0.32,0.71,0.66,1.06,1.01
			c0.24,0.24,0.49,0.48,0.73,0.73c0.71,0.73,1.43,1.5,2.13,2.31c0.23,0.26,0.46,0.53,0.69,0.81c0.74,0.87,1.46,1.78,2.17,2.72
			c0.41,0.54,0.82,1.09,1.21,1.65c0.19,0.26,0.38,0.53,0.57,0.8c1.5,2.16,2.93,4.45,4.26,6.82c0.16,0.29,0.32,0.57,0.47,0.86
			c0.08,0.13,0.15,0.27,0.22,0.4c0.14,0.25,0.28,0.51,0.41,0.76c0.2,0.36,0.38,0.72,0.56,1.08c0.27,0.53,0.53,1.05,0.79,1.58
			c0.17,0.33,0.33,0.67,0.48,1c0.14,0.3,0.28,0.59,0.41,0.89c0.45,0.97,0.88,1.95,1.28,2.93c0.2,0.47,0.39,0.94,0.57,1.42
			c0.04,0.09,0.08,0.19,0.11,0.28c0.2,0.5,0.39,1,0.57,1.5c0.41,1.1,0.78,2.2,1.13,3.3c0.16,0.5,0.31,0.99,0.46,1.49
			c0.33,1.13,0.63,2.25,0.89,3.36c0.13,0.54,0.25,1.07,0.36,1.6c0.11,0.51,0.21,1.02,0.3,1.52c0.01,0.02,0.01,0.04,0.01,0.06
			c0.1,0.5,0.18,0.99,0.26,1.49c0,0.06,0.01,0.12,0.02,0.18c0.05,0.3,0.09,0.59,0.13,0.89c0.05,0.38,0.09,0.76,0.13,1.13
			c0.04,0.38,0.08,0.76,0.11,1.13c0.04,0.44,0.07,0.88,0.09,1.31c0.07,1.33,0.1,2.64,0.1,3.95
			C484.32,511.55,484.31,512.25,484.29,512.95z M509.57,537.59c-3.17,2.9-8.03-0.56-6.32-4.52c13.65-31.68,12.38-62.63-1.58-93.46
			c-1.79-3.97,3.11-7.53,6.32-4.58c11.46,10.57,21.77,31.21,22.59,47.03C531.84,506.41,521.24,526.93,509.57,537.59z M394.53,493.76
			l-3.21-6.85l-3.89-2.01l-5.88-1.83l-8.57-1.51h-10.04l-2.41,1.17l-2.41,3.01l-0.8,2l-0.94,5.85v6.35l0.41,3.34l-3.62,3.34
			l3.35,1.51v2.84l-1.61,4.84l3.75,7.35l2.68,2.34h14.45l8.03-1.5l5.09-2.34l3.74-4.01l0.94-2.01l1.34-6.34l1.34-3.51l-1.21-6.52
			L394.53,493.76z"/>
		<g>
			<g>
				<path class="st0" d="M466.48,513.25v0.01c0,0.92-0.01,1.84-0.04,2.76c-0.02,0.92-0.06,1.85-0.11,2.77
					c-0.05,0.93-0.11,1.85-0.18,2.78c-0.06,0.72-0.12,1.45-0.2,2.18c-0.03,0.36-0.07,0.73-0.12,1.11c-0.05,0.52-0.11,1.04-0.19,1.57
					c-0.04,0.43-0.1,0.87-0.17,1.32c-0.08,0.58-0.16,1.16-0.26,1.75c-0.03,0.25-0.07,0.5-0.12,0.76c-0.1,0.67-0.22,1.34-0.35,2.01
					c-0.03,0.23-0.08,0.47-0.13,0.7c-0.15,0.84-0.32,1.68-0.5,2.51c-0.2,0.93-0.41,1.86-0.63,2.79c-0.23,0.94-0.46,1.87-0.71,2.8
					c-0.18,0.66-0.37,1.33-0.56,2c-0.11,0.39-0.22,0.78-0.35,1.18c-0.23,0.78-0.47,1.57-0.72,2.36c-0.01,0.02-0.02,0.04-0.02,0.06
					c-0.26,0.81-0.54,1.63-0.82,2.44c-0.39,1.15-0.81,2.31-1.26,3.46c-0.31,0.84-0.64,1.68-0.98,2.52c-0.34,0.87-0.7,1.73-1.07,2.59
					c-0.03,0.08-0.07,0.15-0.1,0.23c-0.92,2.11,0.05,4.09,1.64,5.03c-1.6-0.91-2.59-2.9-1.67-5.03c0.03-0.08,0.07-0.15,0.1-0.23
					c0.37-0.86,0.73-1.72,1.07-2.59c0.34-0.84,0.67-1.68,0.98-2.52c0.45-1.15,0.87-2.31,1.26-3.46c0.28-0.81,0.56-1.63,0.82-2.44
					c0-0.02,0.01-0.04,0.02-0.06c0.25-0.79,0.49-1.58,0.72-2.36c0.13-0.4,0.24-0.79,0.35-1.18c0.19-0.67,0.38-1.34,0.56-2
					c0.25-0.93,0.48-1.86,0.71-2.8c0.22-0.93,0.43-1.86,0.63-2.79c0.18-0.83,0.35-1.67,0.5-2.51c0.05-0.23,0.1-0.47,0.13-0.7
					c0.13-0.67,0.25-1.34,0.35-2.01c0.05-0.26,0.09-0.51,0.12-0.76c0.1-0.59,0.18-1.17,0.26-1.75c0.07-0.45,0.13-0.89,0.17-1.32
					c0.08-0.53,0.14-1.05,0.19-1.57c0.05-0.38,0.09-0.75,0.12-1.11c0.08-0.73,0.14-1.46,0.2-2.18c0.07-0.93,0.13-1.85,0.18-2.78
					c0.05-0.92,0.09-1.85,0.11-2.77c0.03-0.92,0.04-1.84,0.04-2.76v-0.01c0-0.63-0.01-1.25-0.02-1.88
					c-0.01-0.63-0.03-1.26-0.05-1.89c-0.01-0.45-0.03-0.9-0.06-1.35c-0.01-0.34-0.03-0.67-0.05-1.01c-0.1-1.8-0.25-3.61-0.46-5.41
					c-0.05-0.55-0.12-1.11-0.19-1.66c-0.08-0.63-0.16-1.26-0.25-1.89c-0.01-0.07-0.02-0.14-0.03-0.22
					c-0.17-1.18-0.36-2.36-0.58-3.54c-0.11-0.62-0.22-1.25-0.35-1.88c-0.11-0.58-0.23-1.16-0.35-1.74
					c-0.14-0.67-0.29-1.35-0.45-2.02c-0.14-0.63-0.29-1.25-0.45-1.88c-0.47-1.9-0.99-3.8-1.57-5.71c-0.36-1.23-0.75-2.45-1.17-3.68
					c-0.19-0.59-0.39-1.17-0.6-1.76c-0.23-0.66-0.47-1.32-0.72-1.99c-0.2-0.57-0.41-1.13-0.63-1.7c-0.58-1.52-1.2-3.04-1.85-4.56
					c-0.43-1.01-0.87-2.03-1.33-3.04c-1.09-2.41,0.27-4.66,2.23-5.39c-1.94,0.76-3.28,3-2.2,5.39c0.46,1.01,0.9,2.03,1.33,3.04
					c0.65,1.52,1.27,3.04,1.85,4.56c0.22,0.57,0.43,1.13,0.63,1.7c0.25,0.67,0.49,1.33,0.72,1.99c0.21,0.59,0.41,1.17,0.6,1.76
					c0.41,1.23,0.8,2.45,1.17,3.68c0.58,1.91,1.1,3.81,1.57,5.71c0.16,0.63,0.31,1.25,0.45,1.88c0.16,0.67,0.31,1.35,0.45,2.02
					c0.12,0.58,0.24,1.16,0.35,1.74c0.13,0.63,0.24,1.26,0.35,1.88c0.21,1.18,0.41,2.36,0.58,3.54c0.01,0.08,0.02,0.15,0.03,0.22
					c0.09,0.63,0.17,1.26,0.25,1.89c0.07,0.55,0.14,1.11,0.19,1.66c0.21,1.8,0.36,3.61,0.46,5.41c0.02,0.34,0.04,0.67,0.05,1.01
					c0.03,0.45,0.05,0.9,0.06,1.35c0.02,0.63,0.04,1.26,0.05,1.89C466.47,512,466.48,512.62,466.48,513.25z"/>
			</g>
		</g>
		<path class="st0" d="M308.88,246.4c-18.74-0.04-33.12,14.53-33.88,32.84c-0.69,16.69,13.41,34.51,33.36,34.36
			c18.77,0.04,33.91-14.82,33.97-33.33C342.39,261.69,327.32,246.43,308.88,246.4z M308.59,302.34
			c-11.92,0.02-22.26-10.44-22.2-22.47c0.06-11.78,10.22-22.04,21.97-22.18c11.82-0.14,22.42,10.32,22.52,22.22
			C330.99,291.74,320.47,302.32,308.59,302.34z"/>
		<path class="st0" d="M430.96,246.4c-18.71-0.04-33.76,14.85-33.79,33.42c-0.03,18.8,14.74,33.74,33.4,33.78
			c18.77,0.03,33.76-14.78,33.79-33.4C464.4,261.47,449.53,246.43,430.96,246.4z M430.66,302.34c-11.82-0.1-22.42-10.86-22.23-22.57
			c0.19-11.71,10.46-21.93,22.18-22.07c11.78-0.13,22.48,10.47,22.49,22.29C453.1,291.79,442.42,302.44,430.66,302.34z"/>
		<g>
			<path class="st0" d="M461.82,330.52c-5.19,13.27-22.06,18.73-35.79,11.59c-4.57-2.37-8.86-5.43-13.65-7.2
				c-7.45-2.77-15.08-1.29-22.56,0.74c-5.01,1.35-8.6-0.04-9.17-3.78c-0.07-0.44-0.1-0.85-0.1-1.24c0-0.24,0.01-0.47,0.04-0.69
				c0.02-0.2,0.05-0.4,0.09-0.59c0.01-0.05,0.02-0.11,0.04-0.16c0.03-0.17,0.08-0.33,0.14-0.48c0.05-0.16,0.11-0.31,0.18-0.45
				c0.03-0.07,0.07-0.15,0.11-0.22c0.01-0.02,0.02-0.04,0.03-0.06c0.16-0.29,0.34-0.56,0.54-0.8c0.12-0.14,0.24-0.27,0.37-0.39
				c0.1-0.1,0.21-0.2,0.32-0.28c0.1-0.09,0.2-0.17,0.31-0.25c0.15-0.11,0.31-0.22,0.47-0.31c0.23-0.15,0.46-0.27,0.7-0.39
				c0.14-0.07,0.27-0.13,0.41-0.19s0.28-0.11,0.42-0.17c0.55-0.21,1.1-0.37,1.62-0.51c0.26-0.07,0.5-0.13,0.74-0.18
				c8.53-2.03,12.8-3.05,16.12-2.89c8.57,0.1,15.97,2.98,23.16,7.14c0.22,0.13,0.39,0.23,0.53,0.31c0.35,0.2,0.78,0.44,1.29,0.71
				c0.13,0.08,0.27,0.15,0.41,0.21c0.1,0.05,0.2,0.1,0.31,0.15c0.52,0.27,1.05,0.52,1.59,0.74c0.07,0.04,0.15,0.07,0.23,0.1
				c0.21,0.1,0.43,0.19,0.65,0.27c0.25,0.1,0.51,0.2,0.78,0.3c0.26,0.11,0.52,0.2,0.79,0.28c0.01,0.01,0.02,0.02,0.04,0.02
				c0.35,0.12,0.72,0.24,1.1,0.36c0.52,0.16,1.06,0.32,1.63,0.46c0.49,0.13,1.01,0.25,1.54,0.35c0.5,0.11,1.02,0.2,1.55,0.28
				c5.94,0.91,10.18-2.28,12.62-7.7c1.58-3.53,3.74-6.33,7.98-4.48C463.83,323.06,463.24,326.88,461.82,330.52z"/>
			<path class="st0" d="M278.73,330.52c5.19,13.27,22.06,18.73,35.79,11.59c4.57-2.37,8.86-5.43,13.65-7.2
				c7.45-2.77,15.08-1.29,22.56,0.74c5.01,1.35,8.6-0.04,9.17-3.78c0.07-0.44,0.1-0.85,0.1-1.24c0-0.24-0.01-0.47-0.04-0.69
				c-0.02-0.2-0.05-0.4-0.09-0.59c-0.01-0.05-0.02-0.11-0.04-0.16c-0.03-0.17-0.08-0.33-0.14-0.48c-0.05-0.16-0.11-0.31-0.18-0.45
				c-0.03-0.07-0.07-0.15-0.11-0.22c-0.01-0.02-0.02-0.04-0.03-0.06c-0.16-0.29-0.34-0.56-0.54-0.8c-0.12-0.14-0.24-0.27-0.37-0.39
				c-0.1-0.1-0.21-0.2-0.32-0.28c-0.1-0.09-0.2-0.17-0.31-0.25c-0.15-0.11-0.31-0.22-0.47-0.31c-0.23-0.15-0.46-0.27-0.7-0.39
				c-0.14-0.07-0.27-0.13-0.41-0.19s-0.28-0.11-0.42-0.17c-0.55-0.21-1.1-0.37-1.62-0.51c-0.26-0.07-0.5-0.13-0.74-0.18
				c-8.53-2.03-12.8-3.05-16.12-2.89c-8.57,0.1-15.97,2.98-23.16,7.14c-0.22,0.13-0.39,0.23-0.53,0.31
				c-0.35,0.2-0.78,0.44-1.29,0.71c-0.13,0.08-0.27,0.15-0.41,0.21c-0.1,0.05-0.2,0.1-0.31,0.15c-0.52,0.27-1.05,0.52-1.59,0.74
				c-0.07,0.04-0.15,0.07-0.23,0.1c-0.21,0.1-0.43,0.19-0.65,0.27c-0.25,0.1-0.51,0.2-0.78,0.3c-0.26,0.11-0.52,0.2-0.79,0.28
				c-0.01,0.01-0.02,0.02-0.04,0.02c-0.35,0.12-0.72,0.24-1.1,0.36c-0.52,0.16-1.06,0.32-1.63,0.46c-0.49,0.13-1.01,0.25-1.54,0.35
				c-0.5,0.11-1.02,0.2-1.55,0.28c-5.94,0.91-10.18-2.28-12.62-7.7c-1.58-3.53-3.74-6.33-7.98-4.48
				C276.72,323.06,277.31,326.88,278.73,330.52z"/>
		</g>
	</g>
</g>
<g>
	<polygon class="st0" points="396.27,505.79 394.93,509.3 393.59,515.64 392.65,517.65 388.91,521.66 383.82,524 375.79,525.5 
		361.34,525.5 358.66,523.16 354.91,515.81 356.52,510.97 356.52,508.13 353.17,506.62 356.79,503.28 356.38,499.94 356.38,493.59 
		357.32,487.74 358.12,485.74 360.53,482.73 362.94,481.56 372.98,481.56 381.55,483.07 387.43,484.9 391.32,486.91 394.53,493.76 
		395.06,499.27 	"/>
	<g>
		<path class="st0" d="M395.06,499.27l-0.53-5.51l-3.21-6.85l-3.89-2.01l-5.88-1.83l-8.57-1.51h-10.04l-2.41,1.17l-2.41,3.01l-0.8,2
			l-0.94,5.85v6.35l0.41,3.34l-3.62,3.34l3.35,1.51v2.84l-1.61,4.84l3.75,7.35l2.68,2.34h14.45l8.03-1.5l5.09-2.34l3.74-4.01
			l0.94-2.01l1.34-6.34l1.34-3.51L395.06,499.27z"/>
	</g>
</g>
</svg>
