<?xml version="1.0" encoding="utf-8"?>
<!-- Generator: Adobe Illustrator 28.0.0, SVG Export Plug-In . SVG Version: 6.00 Build 0)  -->
<svg version="1.1" id="Layer_1" xmlns="http://www.w3.org/2000/svg" xmlns:xlink="http://www.w3.org/1999/xlink" x="0px" y="0px"
	 viewBox="0 0 432 432" style="enable-background:new 0 0 432 432;" xml:space="preserve">
<style type="text/css">
	.st0{fill:#2A7B73;}
	.st1{fill:#F9E4B9;}
	.st2{fill:#EE2F24;}
	.st3{font-family:'MendlSans-DawnBold';}
	.st4{font-size:13.456px;}
	.st5{font-family:'ClarendonURW-Reg';}
	.st6{font-size:17.8292px;}
	.st7{font-family:'NeueKabel-Bold';}
</style>
<g>
	<g>
		<g>
			<g>
				<path class="st0" d="M359.53,197.81c-43.73-4.13-91.75-6.77-143.48-6.77c-51.77,0-99.82,2.63-143.57,6.77
					c-1.25,0-7.78-0.15-13.07-5.43c-3.35-3.35-5.43-7.98-5.43-13.07v-10.93c0-8.76,7.17-15.93,15.93-15.93
					c44.49-4.23,93.4-6.92,146.14-6.88c51.71,0.04,99.73,2.71,143.48,6.88c1.25,0,7.78,0.15,13.07,5.43
					c3.35,3.35,5.43,7.98,5.43,13.07v8.36C378.03,189.49,369.7,197.81,359.53,197.81z"/>
				<path class="st0" d="M382.35,171.92c0.38,1.68,2.32,10.95-3.48,19.52c-3.87,5.72-9.16,8.15-11.37,9.02
					c10.72,5.23,21.43,10.45,32.15,15.68c-1.18-6.8-2.35-13.59-3.53-20.39c5.88-2.74,11.76-5.49,17.64-8.23
					C403.28,182.32,392.81,177.12,382.35,171.92z"/>
				<path class="st0" d="M49.65,171.92c-0.38,1.68-2.32,10.95,3.48,19.52c3.87,5.72,9.16,8.15,11.37,9.02
					c-10.72,5.23-21.43,10.45-32.15,15.68c1.18-6.8,2.35-13.59,3.53-20.39c-5.88-2.74-11.76-5.49-17.64-8.23
					C28.72,182.32,39.19,177.12,49.65,171.92z"/>
			</g>
			<g>
				<g>
					<path class="st1" d="M161.64,178.95c-2.23-3.58-4.47-7.15-6.74-10.72c-1.35-2-2.71-3.99-4.07-5.99
						c-0.33,2.35-0.69,4.62-0.98,7.16c-0.36,3.17-0.6,5.41-0.67,6.45c-0.11,1.24-0.05,2.17,1.67,2.05c0.39-0.03,0.54,0.13,0.51,0.52
						c-0.03,0.22-0.06,0.44-0.1,0.66c-0.03,0.39-0.22,0.56-0.6,0.59c-2.07-0.06-4.13,0.08-6.23,0.42c-0.19,0.01-0.56-0.02-0.51-0.51
						c0.03-0.22,0.06-0.44,0.09-0.66c0.03-0.39,0.21-0.56,0.6-0.59c1.39-0.1,2.05-1.04,2.22-2.32c0.24-1.77,0.67-5.03,0.86-6.82
						c0.21-1.85,0.59-5.13,0.72-6.98c0.12-1.18-1.01-2.38-4.62-2.13c-4.04,0.28-8.01,3.79-7.69,7.88c0.16,2.13,1.72,3.73,3.57,3.6
						c1.68-0.12,2.44-1.33,2.36-2.34c-0.03-0.35-0.16-0.67-0.45-0.82c1.05-1.53,3.43-1.01,3.24,1.2c-0.23,1.99-2.62,3.22-5.16,3.41
						c-3.24,0.24-6.68-1.74-6.97-5.28c-0.43-5.31,5.4-8.98,11.09-9.37c1.58-0.11,4.76,0.33,8.64-0.32c0.36-0.08,0.69,0.12,0.88,0.41
						c1.49,2.34,2.97,4.67,4.44,7.02c1.21,1.8,2.41,3.6,3.6,5.41c0.19-1.65,0.38-3.22,0.5-4.08c0.39-3.17,0.55-4.41,0.63-5.45
						c0.13-1.24,0.08-2.17-1.67-2.07c-0.39,0.02-0.55-0.13-0.51-0.52c0.03-0.22,0.07-0.44,0.1-0.66c0.04-0.39,0.22-0.56,0.62-0.58
						c2.1,0.07,4.2-0.04,6.34-0.34c0.2-0.01,0.57,0.03,0.51,0.52c-0.04,0.22-0.07,0.44-0.11,0.66c-0.04,0.38-0.23,0.56-0.62,0.58
						c-1.41,0.07-2.1,1.01-2.29,2.28c-0.27,1.77-0.63,4.03-0.85,5.82c-0.24,1.85-0.98,9.85-1.13,11.69c0,0.05-0.02,0.11-0.02,0.17
						C162.46,178.9,162.05,178.93,161.64,178.95z M143.98,160.62c1.72-0.12,2.7,0.12,3.23,0.38c-0.63-0.12-1.4-0.15-2.36-0.09
						c-4.04,0.28-8,3.78-7.69,7.87c0.01,0.19,0.03,0.38,0.07,0.57c-0.2-0.42-0.35-0.93-0.39-1.48
						C136.55,164.03,140.37,160.86,143.98,160.62z M145.55,169.05c0.25,0.34,0.36,0.8,0.32,1.38c-0.23,1.99-2.62,3.22-5.16,3.41
						c-1.06,0.08-2.14-0.06-3.1-0.46c0.72,0.17,1.48,0.22,2.23,0.16c1.4-0.1,2.72-0.5,3.71-1.12c0.57-0.34,1.02-0.73,1.32-1.19
						c0.39-0.49,0.6-1.03,0.68-1.61c0-0.01,0-0.02,0-0.03C145.58,169.41,145.57,169.22,145.55,169.05z M152,179.12
						c0.01-0.12,0.02-0.24,0.03-0.36c0.28,0.01,0.4,0.17,0.37,0.5c-0.03,0.22-0.07,0.44-0.1,0.66c-0.03,0.39-0.22,0.56-0.6,0.59
						c-2.07-0.06-4.12,0.08-6.22,0.41c-0.17,0.01-0.47,0.01-0.5-0.35c0.91-0.15,1.85-0.24,2.77-0.3c1-0.07,2.03-0.08,3.04-0.06
						c0.02,0,0.04,0,0.06,0c0.33-0.02,0.61-0.12,0.82-0.33C151.84,179.7,151.96,179.45,152,179.12z M151.36,163.8
						c0.11,0.18,0.23,0.35,0.34,0.53c-0.27,1.91-0.58,3.82-0.81,5.91c-0.36,3.17-0.6,5.41-0.68,6.45c-0.02,0.19-0.03,0.39-0.02,0.55
						c-0.09-0.02-0.14-0.05-0.17-0.1c-0.18-0.18-0.16-0.73-0.11-1.25c0-0.01,0-0.02,0-0.03c0.07-1.02,0.3-3.2,0.68-6.42
						c0.19-1.82,0.45-3.51,0.69-5.14C151.29,164.13,151.31,163.96,151.36,163.8z M168.51,158.39c0.01-0.12,0.03-0.24,0.04-0.36
						c0.2,0.02,0.4,0.12,0.36,0.5c-0.04,0.22-0.07,0.44-0.11,0.66c-0.04,0.39-0.23,0.56-0.62,0.58c-1.41,0.07-2.1,1.01-2.29,2.28
						c-0.28,1.77-0.64,4.03-0.85,5.82c-0.24,1.85-0.99,9.85-1.14,11.69c0,0.05-0.02,0.11-0.02,0.17c-0.41,0.02-0.82,0.04-1.22,0.07
						c-0.07-0.11-0.14-0.23-0.21-0.34c0.19-0.01,0.39-0.02,0.58-0.03c0.31-0.02,0.54-0.25,0.56-0.55c0-0.03,0.02-0.08,0.02-0.17
						c0.15-1.84,0.9-9.76,1.14-11.64c0.17-1.57,0.46-3.5,0.74-5.18c0.05-0.19,0.06-0.41,0.11-0.64c0.25-1.71,1.35-1.77,1.72-1.78
						c0.34-0.02,0.62-0.11,0.83-0.32C168.34,158.97,168.47,158.72,168.51,158.39z M161.94,159.97c0.03,0.05,0.06,0.08,0.06,0.13
						c-0.05,0-0.09,0.01-0.14,0.01c-0.31,0.02-0.49-0.08-0.5-0.3C161.65,159.82,161.85,159.89,161.94,159.97z"/>
					<path class="st1" d="M166.67,178.19c0.04-0.25,0.09-0.5,0.13-0.74c0.06-0.39,0.23-0.48,0.62-0.5c1.06-0.05,1.37-1.05,1.59-2.32
						c0.35-1.99,1.01-7.36,1.2-9.33c0.11-1.26,0.04-2.16-1.03-2.11c-0.2,0.01-0.57-0.03-0.51-0.52c0.04-0.24,0.07-0.48,0.11-0.72
						c0.04-0.39,0.23-0.56,0.62-0.58c3.7-0.04,7.06-0.19,10.75-0.48c0.39-0.04,0.65,0.11,0.84,0.46c0.53,1.4,1.05,2.8,1.57,4.2
						c0.22,0.59-1.32,0.9-1.71,0.23c-0.88-1.5-2.43-3.02-4.66-2.92c-0.23,0.01-0.47,0.02-0.7,0.03c-1.1,0.05-1.4,0.96-1.62,2.23
						c-0.16,0.88-0.42,2.54-0.5,3.22c-0.07,0.39,0.08,0.54,0.47,0.52c0.55-0.03,1.1-0.05,1.65-0.07c0.39-0.02,1.02-0.45,1.11-0.9
						c0.03-0.15,0.06-0.29,0.09-0.44c0.07-0.39,0.23-0.56,0.62-0.57c0.35-0.01,0.69-0.03,1.04-0.04c0.39-0.02,0.54,0.14,0.5,0.53
						c-0.36,1.41-0.65,3.28-0.65,4.62c-0.04,0.38-0.23,0.56-0.62,0.57c-0.34,0.01-0.69,0.03-1.03,0.04
						c-0.39,0.02-0.57-0.14-0.5-0.52c0.02-0.17,0.04-0.33,0.06-0.5c0.06-0.5-0.38-0.94-0.94-0.92c-0.52,0.02-1.04,0.05-1.57,0.07
						c-0.39,0.02-0.58,0.19-0.62,0.58c-0.07,0.39-0.3,2.48-0.36,3.14c-0.14,1.24,0.1,2.16,2.16,2.06c0.29-0.01,0.58-0.03,0.86-0.04
						c2.09-0.09,4.17-2.34,4.94-4.04c0.28-0.64,1.91-0.68,1.68-0.04c-0.65,1.74-1.3,3.48-1.94,5.22c-0.12,0.36-0.4,0.51-0.79,0.52
						c-4.21,0.01-8.13,0.17-12.38,0.58C166.98,178.72,166.59,178.68,166.67,178.19z M180.93,177.77c0.61-1.66,1.23-3.31,1.84-4.97
						c0.28,0.04,0.51,0.2,0.41,0.45c-0.65,1.74-1.3,3.48-1.94,5.22c-0.13,0.36-0.4,0.51-0.79,0.52c-4.2,0.01-8.13,0.16-12.37,0.57
						c-0.17,0.01-0.47,0-0.52-0.33c1.89-0.18,3.72-0.32,5.64-0.41c2-0.09,4.09-0.13,6.37-0.14
						C180.13,178.66,180.68,178.39,180.93,177.77z M175.55,171.49c0,0.02,0,0.04,0,0.05c-0.35,0.02-0.69,0.03-1.04,0.05
						c-0.39,0.02-0.58,0.19-0.62,0.58c-0.07,0.39-0.31,2.48-0.36,3.14c-0.02,0.14-0.01,0.27-0.04,0.41
						c-0.03-0.03-0.06-0.05-0.09-0.11c-0.26-0.26-0.2-0.73-0.16-1.14c0.05-0.66,0.29-2.72,0.36-3.11c0-0.03,0-0.05,0-0.08
						c0.54-0.02,1.08-0.05,1.62-0.07c0.11-0.01,0.2,0.05,0.26,0.1C175.51,171.33,175.57,171.41,175.55,171.49z M176.23,163.39
						c0.7-0.03,1.33,0.13,1.85,0.39c-0.31-0.04-0.65-0.08-0.99-0.07c-0.23,0.01-0.47,0.02-0.7,0.03c-1.1,0.05-1.4,0.96-1.62,2.23
						c-0.12,0.58-0.24,1.52-0.38,2.26c-0.13,0.01-0.26,0.01-0.39,0.02c0.08-0.72,0.32-2.2,0.48-3.06c0.06-0.5,0.21-1.05,0.39-1.39
						c0.16-0.25,0.35-0.37,0.66-0.39C175.76,163.41,176,163.4,176.23,163.39z M178.82,171.95c0.01-1.15,0.22-2.83,0.58-4.26
						c0.28,0.04,0.4,0.2,0.36,0.53c-0.36,1.41-0.65,3.28-0.65,4.62c-0.04,0.38-0.23,0.56-0.62,0.57c-0.34,0.01-0.69,0.03-1.03,0.04
						c-0.31,0.01-0.48-0.09-0.52-0.33c0.23-0.01,0.47-0.02,0.7-0.03C178.31,173.07,178.71,172.64,178.82,171.95z M183.02,166.12
						c0.11-0.14,0.16-0.28,0.15-0.44c0.09,0.24,0.19,0.49,0.28,0.73c0.22,0.57-1.23,0.89-1.68,0.28
						C182.34,166.67,182.81,166.46,183.02,166.12z"/>
					<path class="st1" d="M187.59,164.15c-0.83-1.2-1.47-1.75-2.34-1.72c-0.37,0.01-0.57-0.14-0.53-0.53
						c0.03-0.22,0.06-0.44,0.09-0.66c0.04-0.38,0.18-0.55,0.6-0.57c1.64,0.05,5.14,0.01,7.05-0.24c0.23-0.01,0.57,0.04,0.52,0.53
						c-0.03,0.22-0.06,0.44-0.09,0.66c-0.04,0.38-0.21,0.55-0.63,0.57c-1.32,0.04-1.2,1.19-0.9,1.81c0.5,1.14,0.99,2.28,1.48,3.43
						c0.84-1.2,1.69-2.4,2.54-3.6c0.82-1.06,0.6-1.74-0.7-1.7c-0.39,0.01-0.51-0.15-0.35-0.54c0.08-0.22,0.16-0.44,0.24-0.66
						c0.21-0.39,0.44-0.56,0.83-0.57c2.18,0.13,3.53,0.1,5.78-0.15c0.23-0.01,0.57,0.04,0.49,0.54c-0.05,0.22-0.1,0.44-0.15,0.66
						c-0.08,0.38-0.33,0.55-0.72,0.56c-1.38,0.03-2.42,1.15-3.46,2.38c-1.21,1.64-2.42,3.27-3.63,4.91
						c0.81,1.58,1.62,3.16,2.43,4.74c0.84,1.21,1.47,1.76,2.36,1.74c0.39-0.01,0.59,0.15,0.54,0.53c-0.03,0.22-0.06,0.44-0.09,0.66
						c-0.05,0.38-0.24,0.55-0.63,0.56c-1.9-0.06-5.1-0.05-7.04,0.21c-0.19,0.01-0.56-0.04-0.52-0.53c0.04-0.22,0.08-0.44,0.12-0.66
						c0.04-0.38,0.21-0.55,0.6-0.57c1.31-0.04,1.19-1.19,0.92-1.81c-0.45-0.99-0.9-1.98-1.35-2.96c-0.77,1.05-1.54,2.09-2.3,3.14
						c-0.83,1.07-0.58,1.74,0.7,1.7c0.39-0.01,0.48,0.15,0.35,0.54c-0.09,0.22-0.17,0.44-0.26,0.66c-0.21,0.39-0.4,0.56-0.79,0.57
						c-2.18-0.12-3.51-0.07-5.65,0.21c-0.19,0.01-0.64-0.03-0.55-0.53c0.04-0.22,0.08-0.44,0.11-0.66c0.04-0.38,0.31-0.56,0.7-0.57
						c1.31-0.05,2.38-1.18,3.4-2.42c1.13-1.5,2.26-3,3.4-4.49c-0.06-0.14-0.12-0.29-0.18-0.43
						C189.2,167.31,188.4,165.73,187.59,164.15z M190.46,177.92c-0.02,0.05-0.03,0.09-0.05,0.14c-0.21,0.39-0.4,0.56-0.79,0.57
						c-2.18-0.12-3.51-0.07-5.64,0.2c-0.17,0.01-0.53-0.01-0.57-0.36c1-0.12,1.78-0.18,2.53-0.2c0.81-0.03,1.67-0.03,2.79,0.04
						c0.02,0,0.04,0,0.06,0c0.53-0.02,1.16-0.37,1.31-0.95c0.03-0.07,0.07-0.15,0.1-0.22C190.17,177.41,190.26,177.71,190.46,177.92
						z M186.07,163.22c-0.25,0.06-0.4-0.04-0.46-0.23C185.75,163.04,185.92,163.12,186.07,163.22z M191.25,172.95
						c-0.55,0.74-1.09,1.47-1.63,2.21c-0.05,0.08-0.11,0.17-0.16,0.22c-0.01,0-0.02,0-0.03,0c-0.39,0.01-0.53-0.06-0.59-0.09
						c0-0.05,0.07-0.3,0.37-0.7c0,0,0,0,1.71-2.33C191.03,172.5,191.14,172.72,191.25,172.95z M199.54,176.95
						c0.02-0.11,0.03-0.22,0.05-0.33c0.22,0.05,0.34,0.21,0.32,0.51c-0.03,0.22-0.06,0.44-0.09,0.66c-0.05,0.38-0.24,0.55-0.63,0.56
						c-1.89-0.06-5.1-0.05-7.04,0.2c-0.17,0.01-0.47-0.01-0.51-0.37c0.72-0.08,1.61-0.13,2.7-0.16c1.25-0.04,2.73-0.05,3.98,0
						c0.01,0,0.02,0,0.03,0c0.33-0.01,0.61-0.1,0.83-0.29C199.36,177.55,199.5,177.27,199.54,176.95z M193.49,161.64
						c0.02-0.11,0.03-0.22,0.05-0.33c0.08,0,0.14,0.05,0.2,0.1c-0.1,0.33-0.09,0.6,0.05,0.85c-0.01,0.07-0.01,0.15-0.02,0.22
						c-0.05,0.38-0.21,0.55-0.63,0.56c-0.84,0.03-1.08,0.5-1.1,0.99c-0.04-0.1-0.08-0.2-0.12-0.3c-0.03-0.03-0.03-0.03-0.03-0.03
						c-0.15-0.3-0.19-0.68-0.08-0.82c0.08-0.14,0.3-0.17,0.47-0.18C192.98,162.69,193.39,162.33,193.49,161.64z M202.54,161.59
						c-0.05,0.22-0.1,0.44-0.15,0.66c-0.08,0.38-0.33,0.55-0.72,0.56c-1.38,0.03-2.42,1.15-3.46,2.38
						c-1.16,1.57-2.31,3.14-3.46,4.72c-0.12-0.22-0.24-0.43-0.36-0.65c1.13-1.55,2.27-3.09,3.41-4.63c0.98-1.15,1.89-2.13,3.02-2.15
						c0.68-0.02,1.15-0.38,1.27-1.01c0.03-0.14,0.07-0.28,0.1-0.41C202.39,161.1,202.59,161.21,202.54,161.59z M195.12,162.69
						c0.08,0,0.11,0.02,0.14,0.05c0,0.03,0,0.08-0.05,0.17C195.16,162.85,195.13,162.79,195.12,162.69z"/>
					<path class="st1" d="M219.84,163.54c-0.15,2.46-3.23,3.15-4.15,1.55c0.45-0.01,0.81-0.47,0.89-0.86
						c0.24-1.15-0.39-2.51-2.34-2.4c-1.41,0.07-2.02,0.77-2.36,2.47c-0.39,1.97-1.27,7.07-1.48,9.04c-0.18,1.23-0.16,2.16,0.96,2.14
						c0.39-0.01,0.53,0.16,0.48,0.54c-0.04,0.22-0.09,0.44-0.13,0.66c-0.05,0.38-0.24,0.55-0.63,0.56
						c-2.06-0.16-4.12-0.12-6.23,0.12c-0.19,0-0.56-0.04-0.49-0.54c0.04-0.22,0.08-0.44,0.13-0.66c0.05-0.38,0.24-0.55,0.63-0.56
						c1.06-0.02,1.43-0.93,1.66-2.19c0.44-1.98,1.29-7.4,1.54-9.38c0.17-1.4,0.05-2.13-1.11-2.11c-1.35,0.03-2.7,1.67-3.4,3.13
						c-0.32,0.69-2.24,0.54-1.97-0.12c0.56-1.43,1.12-2.85,1.68-4.27c0.16-0.36,0.41-0.53,0.81-0.51c1.7,0.05,4.1,0.14,5.99,0.11
						c1.64-0.03,2.73-0.21,4.63-0.23C217.8,159.97,219.88,161.32,219.84,163.54z M207.72,162.83c-1.24,0.24-2.44,1.74-3.09,3.1
						c-0.13,0.3-0.58,0.45-1.03,0.46c-0.42,0.01-0.85-0.12-0.93-0.33c0.03,0,0.06,0,0.08,0c0.76-0.02,1.31-0.33,1.56-0.8
						c0.4-0.88,1.63-2.77,2.87-2.79C207.63,162.44,207.69,162.55,207.72,162.83z M212.27,176.74c0.02-0.13,0.03-0.26,0.05-0.38
						c0.25,0.05,0.34,0.16,0.34,0.41c0,0.05,0,0.09,0,0.14c-0.04,0.22-0.09,0.44-0.13,0.66c-0.05,0.38-0.24,0.55-0.63,0.56
						c-1.03-0.09-2.06-0.1-3.09-0.08c-1.06,0.02-2.09,0.07-3.14,0.2c-0.17,0-0.47-0.04-0.51-0.37c0.94-0.1,1.89-0.15,2.81-0.16
						c1.75-0.03,2.98,0.09,3.09,0.08C211.36,177.77,212.11,177.68,212.27,176.74z M214.39,162.36c0.51-0.01,0.9,0.1,1.19,0.34
						c-0.17,0-0.34,0-0.51,0.01c-1.41,0.07-2.02,0.77-2.36,2.46c-0.39,1.97-1.27,7.07-1.49,9.04c-0.02,0.22-0.05,0.44-0.07,0.63
						c-0.17-0.02-0.28-0.08-0.29-0.57c-0.02-1.01,1.08-7.51,1.56-9.92c0.32-1.51,0.76-1.95,1.83-1.99
						C214.3,162.37,214.34,162.37,214.39,162.36z M220.37,163.07c0.2,0.38,0.29,0.82,0.29,1.28c0,0.03,0,0.05,0,0.08
						c-0.1,1.56-1.36,2.39-2.51,2.4c-0.45,0-0.87-0.1-1.21-0.37c0.14,0.03,0.25,0.02,0.37,0.02c1.07-0.01,3.11-0.82,3.09-3.06
						C220.4,163.31,220.4,163.18,220.37,163.07z"/>
					<path class="st1" d="M245.41,157.18c0.06-0.38,0.26-0.57,0.66-0.54c0.59,0.06,1.27,0.1,1.92,0.08
						c-3.51-1.85-6.24-4.47-9.94-4.5c-4.24-0.02-7.56,3.37-7.55,7c0,2.38,1.44,3.99,3.35,3.99c1.6,0,2.48-1.14,2.49-2.15
						c0-0.36-0.11-0.68-0.39-0.85c0.43-0.52,0.99-0.76,1.53-0.76c0.87,0,1.66,0.64,1.65,1.81c-0.02,2.21-2.84,3.4-5.36,3.39
						c-3.37-0.01-6.64-2.13-6.65-5.96c-0.02-5.19,6.11-8.22,11.86-8.18c8.17,0.06,11.23,6.21,17.59,6.33c3,0.06,3.79-1.28,3.82-2.35
						c0.02-0.9-0.5-1.49-1.13-1.5c-0.14,0-0.26,0.02-0.37,0.05c0.08-1.17,1.04-2.05,2.29-2.02c0.85,0.02,2.38,0.5,2.33,2.27
						c-0.08,2.87-4.02,5.31-8.9,5.21c-2.09-0.04-3.86-0.53-5.44-1.24c-0.21,0.98-1.25,6.1-1.85,9.51c0.82,0.01,1.65,0.02,2.47,0.04
						c0.56,0.01,1.04-0.37,1.16-0.77c0.06-0.22,0.12-0.43,0.18-0.65c0.09-0.38,0.26-0.54,0.66-0.54c0.37,0.01,0.75,0.01,1.12,0.02
						c0.39,0.01,0.59,0.17,0.47,0.56c-0.42,1.41-0.99,3.7-1.07,5.04c-0.06,0.38-0.26,0.54-0.65,0.54c-0.37-0.01-0.75-0.01-1.12-0.02
						c-0.39-0.01-0.56-0.17-0.47-0.55c0.06-0.25,0.12-0.49,0.18-0.74c0.12-0.54-0.15-0.9-0.88-0.91c-0.79-0.01-1.59-0.02-2.38-0.03
						c0,0.05,0,0.11,0,0.16c-0.4,2.48-1.01,4.77-2.12,6.64c5.52,3.29,10.32,8.76,15.59,9.13c2.82,0.21,3.83-1.21,3.86-2.39
						c0.03-0.98-0.65-1.6-1.46-1.41c0.09-1.17,1.03-2.05,2.22-2.02c0.86,0.02,2.35,0.5,2.3,2.28c-0.1,3.06-4.7,5.52-8.86,5.15
						c-6.31-0.55-11.11-5.4-15.31-8.69c-1.66,1.51-3.97,2.42-7.27,2.41c-3.41-0.01-5.19-1.62-5.19-3.15c0-1.91,2.65-3.83,6.51-3.81
						c1.62,0.01,3.18,0.4,4.68,0.99c0.63-1.52,1.06-3.35,1.48-5.29C243.95,166.18,245.25,158.19,245.41,157.18z M238.05,152.77
						c1.16,0.01,2.24,0.32,3.29,0.76c-0.79-0.25-1.59-0.39-2.44-0.4c-4.23-0.03-7.55,3.36-7.55,7c0,0.25,0,0.49,0.03,0.74
						c-0.2-0.49-0.28-1.04-0.28-1.67C231.09,155.7,234.27,152.75,238.05,152.77z M239.72,161.25c0-0.03,0-0.05,0-0.08
						c0.14,0.27,0.25,0.6,0.25,1.01c-0.02,2.21-2.84,3.4-5.36,3.39c-1.12,0-2.25-0.25-3.23-0.69c0.76,0.22,1.57,0.33,2.39,0.33
						c1.4,0,2.84-0.35,3.91-0.94c0.62-0.32,1.1-0.76,1.44-1.22C239.51,162.51,239.71,161.91,239.72,161.25z M243.18,178.36
						c0.18,0.14,0.37,0.28,0.55,0.42c-1.66,1.38-3.88,2.18-6.99,2.16c-1.39-0.01-2.5-0.26-3.33-0.7c0.75,0.22,1.58,0.33,2.5,0.34
						c1.64,0.01,3.14-0.2,4.45-0.66C241.42,179.55,242.37,179.04,243.18,178.36z M240.84,175.99c-1.33-0.83-2.61-1.36-3.84-1.36
						c-2.04-0.01-3.21,0.92-3.21,1.85c0,0.82,0.8,1.56,2.61,1.62C238.46,178.1,239.85,177.29,240.84,175.99z M234.37,176.45
						c0-0.52,0.84-1.28,2.62-1.27c0.67,0,1.42,0.2,2.25,0.59c-0.47-0.14-0.95-0.22-1.42-0.23c-1.78-0.01-2.9,0.7-3.16,1.49
						C234.48,176.86,234.37,176.66,234.37,176.45z M249.66,169.56c-0.01,0.05-0.02,0.09-0.03,0.14c-0.61-0.01-1.21-0.02-1.82-0.03
						c0,0.05,0,0.11,0,0.16c-0.37,2.13-0.87,4.12-1.7,5.83c-0.16-0.11-0.31-0.22-0.47-0.33c0.83-1.58,1.44-3.51,1.87-6.02
						c0.62,0.01,1.23,0.02,1.85,0.03c0.2,0,0.28,0.06,0.31,0.06C249.66,169.42,249.69,169.45,249.66,169.56z M249.58,158.05
						c0.14,0.06,0.28,0.11,0.42,0.17c-0.21,0.87-1,4.77-1.58,7.98c-0.14,0-0.28,0-0.42-0.01
						C248.51,163.34,249.24,159.69,249.58,158.05z M264.1,153.3c0-0.05,0-0.11-0.02-0.16c0.16,0.28,0.27,0.66,0.25,1.1
						c-0.08,2.87-4.02,5.3-8.9,5.21c-2-0.04-3.72-0.48-5.24-1.16c1.43,0.51,2.87,0.76,4.4,0.79c2.43,0.05,4.78-0.5,6.57-1.58
						c0.89-0.52,1.59-1.14,2.08-1.83C263.77,154.9,264.08,154.11,264.1,153.3z M252.89,170.49c0.05-1.12,0.5-3.11,0.98-4.68
						c0.28,0.06,0.42,0.23,0.33,0.55c-0.42,1.41-0.99,3.7-1.07,5.04c-0.06,0.38-0.26,0.54-0.65,0.54c-0.37-0.01-0.75-0.01-1.12-0.02
						c-0.34-0.01-0.5-0.12-0.5-0.36c0.26,0,0.52,0.01,0.78,0.01c0.34,0.01,0.62-0.07,0.82-0.26c0.23-0.16,0.37-0.43,0.41-0.76
						C252.89,170.52,252.89,170.52,252.89,170.49z M267.95,181.15c0-0.05,0-0.11-0.02-0.16c0.16,0.28,0.26,0.66,0.24,1.1
						c-0.1,3.06-4.7,5.52-8.86,5.15c-1.71-0.15-3.3-0.62-4.78-1.25c1.32,0.46,2.61,0.76,3.91,0.87c0.22,0.03,0.44,0.04,0.66,0.04
						c2.04,0.05,4.18-0.53,5.9-1.57c0.87-0.52,1.55-1.13,2.05-1.8C267.62,182.78,267.92,181.97,267.95,181.15z"/>
					<path class="st1" d="M264.61,177.04c-0.15,0.35-0.4,0.48-0.79,0.47c-0.81-0.08-2-0.08-2.92-0.07c-0.31-0.01-0.47-0.2-0.52-0.56
						c-0.15-1.86-0.1-3.97-0.37-7.96c-0.11-1.45-0.32-3.15-0.55-5.18c-0.14-1.29-0.64-1.82-1.48-1.84c-0.4-0.01-0.53-0.18-0.44-0.56
						c0.06-0.22,0.12-0.43,0.18-0.65c0.09-0.38,0.29-0.54,0.69-0.53c1.72,0.15,4.17,0.29,6.04,0.15c0.2,0.01,0.56,0.07,0.44,0.56
						c-0.06,0.22-0.12,0.43-0.19,0.65c-0.09,0.38-0.3,0.54-0.69,0.53c-1.07-0.03-0.98,0.88-0.9,2.16c0.17,2.82,0.34,5.64,0.51,8.46
						c0.05,0.58,0.1,1.15,0.15,1.73c1.73-3.5,3.48-6.99,5.23-10.49c0.51-1.11,0.34-1.71-0.9-1.75c-0.39-0.01-0.53-0.18-0.43-0.56
						c0.06-0.22,0.13-0.43,0.19-0.65c0.1-0.38,0.3-0.54,0.69-0.53c2.03,0.25,3.6,0.3,5.67,0.18c0.2,0.01,0.56,0.07,0.43,0.56
						c-0.06,0.22-0.13,0.43-0.19,0.65c-0.1,0.38-0.3,0.54-0.7,0.52c-1.21-0.04-2.06,1-2.78,2.2
						C268.83,168.7,266.71,172.87,264.61,177.04z M258.57,162.76c-0.17-0.03-0.25-0.11-0.28-0.25
						C258.41,162.53,258.49,162.62,258.57,162.76z M275.43,162.07c-0.06,0.22-0.13,0.43-0.19,0.65c-0.1,0.38-0.3,0.54-0.7,0.52
						c-1.21-0.04-2.06,1-2.78,2.2c-2.14,4.16-4.27,8.32-6.37,12.49c-0.15,0.35-0.4,0.48-0.79,0.47c-0.81-0.08-2-0.08-2.92-0.08
						c-0.25-0.01-0.41-0.15-0.49-0.37c0.45-0.02,0.95,0,1.39,0.01c0.47,0.01,0.86,0.02,1.14,0.06c0.02,0,0.04,0,0.06,0
						c0.81,0.02,1.18-0.41,1.33-0.81c2.1-4.16,4.22-8.32,6.37-12.47c0.39-0.64,0.74-1.1,1.09-1.41c0.38-0.34,0.75-0.49,1.14-0.48
						c0.34,0.01,0.62-0.06,0.85-0.24c0.2-0.16,0.35-0.37,0.42-0.7c0.04-0.14,0.08-0.27,0.13-0.41
						C275.3,161.54,275.53,161.66,275.43,162.07z M265.23,161.61c0.04-0.14,0.08-0.27,0.12-0.41c0.2,0.03,0.42,0.15,0.32,0.56
						c-0.06,0.22-0.12,0.43-0.19,0.65c-0.1,0.38-0.3,0.54-0.69,0.53c-1.07-0.03-0.89,0.77-0.82,2.06c0.14,2.26,0.27,4.53,0.41,6.79
						c-0.08,0.13-0.16,0.27-0.23,0.4c-0.17-2.73-0.34-5.46-0.51-8.19c-0.02-0.41-0.04-0.77,0-1.04c0.01-0.27,0.07-0.35,0.07-0.35
						c0.03-0.03,0.09-0.05,0.25-0.05c0.34,0.01,0.62-0.07,0.85-0.25C265.02,162.15,265.16,161.94,265.23,161.61z M268.63,163.02
						c-0.14-0.06-0.22-0.14-0.22-0.31c0.14,0.03,0.19,0.09,0.22,0.09C268.63,162.8,268.66,162.86,268.63,163.02z"/>
					<path class="st1" d="M272.96,177.24c0.06-0.24,0.13-0.49,0.19-0.73c0.1-0.38,0.27-0.46,0.66-0.44
						c1.06,0.04,1.46-0.93,1.78-2.18c0.52-1.95,1.64-7.24,1.99-9.2c0.22-1.25,0.22-2.15-0.85-2.19c-0.2-0.01-0.56-0.08-0.46-0.56
						c0.06-0.23,0.11-0.47,0.17-0.7c0.07-0.38,0.27-0.54,0.67-0.52c3.69,0.27,7.05,0.41,10.75,0.44c0.4-0.01,0.64,0.17,0.79,0.53
						c0.4,1.44,0.81,2.88,1.21,4.32c0.17,0.61-1.39,0.78-1.72,0.08c-0.74-1.57-2.17-3.22-4.39-3.31c-0.23-0.01-0.47-0.02-0.7-0.03
						c-1.1-0.05-1.47,0.84-1.81,2.09c-0.23,0.87-0.63,2.49-0.77,3.17c-0.1,0.38,0.03,0.55,0.43,0.56c0.55,0.02,1.1,0.04,1.65,0.07
						c0.39,0.02,1.06-0.37,1.19-0.8c0.04-0.14,0.09-0.29,0.13-0.43c0.1-0.38,0.28-0.54,0.67-0.52c0.35,0.01,0.69,0.03,1.04,0.05
						c0.39,0.02,0.53,0.19,0.45,0.57c-0.48,1.37-0.93,3.21-1.04,4.55c-0.07,0.38-0.27,0.53-0.67,0.52
						c-0.34-0.01-0.69-0.03-1.03-0.04c-0.39-0.02-0.55-0.19-0.45-0.57c0.03-0.16,0.07-0.33,0.1-0.49c0.11-0.49-0.3-0.97-0.86-0.99
						c-0.52-0.02-1.05-0.04-1.57-0.06c-0.39-0.02-0.59,0.14-0.67,0.52c-0.1,0.38-0.52,2.44-0.62,3.09
						c-0.24,1.22-0.08,2.16,1.98,2.24c0.29,0.01,0.58,0.02,0.86,0.04c2.09,0.09,4.36-1.97,5.27-3.6c0.34-0.61,1.96-0.51,1.68,0.1
						c-0.8,1.68-1.59,3.35-2.38,5.03c-0.15,0.35-0.44,0.47-0.83,0.46c-4.19-0.35-8.12-0.53-12.38-0.49
						C273.22,177.8,272.83,177.73,272.96,177.24z M287.2,178.05c0.75-1.6,1.51-3.2,2.26-4.79c0.28,0.07,0.49,0.24,0.37,0.48
						c-0.8,1.68-1.59,3.35-2.38,5.03c-0.15,0.35-0.44,0.47-0.83,0.45c-4.19-0.35-8.11-0.54-12.37-0.5
						c-0.17-0.01-0.47-0.04-0.49-0.37c1.89-0.02,3.73,0,5.65,0.07c2,0.08,4.09,0.22,6.36,0.4
						C286.33,178.86,286.89,178.64,287.2,178.05z M282.38,171.33c0,0.02,0,0.04,0,0.05c-0.34-0.01-0.69-0.03-1.03-0.04
						c-0.39-0.02-0.59,0.14-0.67,0.52c-0.1,0.38-0.52,2.44-0.63,3.09c-0.03,0.14-0.04,0.27-0.07,0.41
						c-0.03-0.03-0.05-0.06-0.08-0.11c-0.24-0.28-0.14-0.74-0.07-1.15c0.11-0.65,0.53-2.69,0.63-3.07c0-0.03,0-0.05,0-0.08
						c0.54,0.02,1.08,0.04,1.62,0.07c0.11,0,0.19,0.06,0.25,0.12C282.36,171.17,282.41,171.25,282.38,171.33z M283.75,163.32
						c0.7,0.03,1.32,0.25,1.81,0.54c-0.31-0.07-0.64-0.14-0.98-0.15c-0.23-0.01-0.47-0.02-0.7-0.03c-1.1-0.05-1.47,0.84-1.81,2.09
						c-0.16,0.57-0.37,1.49-0.57,2.22c-0.13-0.01-0.26-0.01-0.39-0.02c0.14-0.71,0.51-2.17,0.74-3.01c0.1-0.49,0.3-1.03,0.51-1.35
						c0.18-0.24,0.38-0.34,0.69-0.33C283.28,163.3,283.52,163.31,283.75,163.32z M285.6,172.07c0.11-1.14,0.46-2.8,0.94-4.2
						c0.28,0.07,0.38,0.24,0.31,0.56c-0.48,1.37-0.93,3.21-1.04,4.55c-0.07,0.38-0.28,0.54-0.67,0.52
						c-0.34-0.02-0.69-0.03-1.03-0.04c-0.31-0.01-0.47-0.13-0.49-0.38c0.23,0.01,0.47,0.02,0.7,0.03
						C284.99,173.14,285.43,172.75,285.6,172.07z M290.28,166.63c0.12-0.13,0.18-0.26,0.19-0.43c0.07,0.25,0.14,0.5,0.22,0.75
						c0.17,0.58-1.3,0.79-1.69,0.14C289.56,167.11,290.04,166.94,290.28,166.63z"/>
					<path class="st1" d="M305.12,167.06c1.63-7.02,3.53-13.49,10.91-13.41c2.51,0.03,6.27,1.73,6.04,4.75
						c-0.12,1.66-1.43,2.53-2.67,2.44c-0.93-0.07-1.66-0.58-1.95-1.37c0.68,0.05,1.1-0.77,1.14-1.29c0.09-1.34-0.96-2.53-2.63-2.65
						c-6.16-0.41-7.53,7.57-9.21,13.81c-0.48,1.89-0.94,3.86-1.36,5.75c-0.17,0.82-0.34,1.64-0.51,2.46
						c1.14,4.34,3.76,9.48,8.43,9.79c2.54,0.17,3.52-1.13,3.6-2.25c0.06-0.84-0.43-1.45-1.06-1.5c-0.11-0.01-0.22,0.01-0.34,0.03
						c0.14-1.17,1.11-2.01,2.31-1.92c0.86,0.06,2.33,0.6,2.2,2.38c-0.21,2.83-4.4,5.16-8.5,4.89c-7.16-0.47-9.18-6.67-10.78-12.6
						c-0.86-3.14-2.31-8.42-3.65-11.37c-0.01,0.16-0.05,0.33-0.08,0.49c-0.58,1.94-1.82,7.35-2.17,9.3
						c-0.26,1.22-0.31,2.15,1.48,2.24c0.39,0.02,0.52,0.19,0.45,0.57c-0.06,0.22-0.12,0.43-0.17,0.65
						c-0.08,0.38-0.28,0.53-0.67,0.51c-2.05-0.3-4.11-0.4-6.23-0.31c-0.19-0.01-0.55-0.08-0.45-0.57c0.06-0.22,0.11-0.43,0.17-0.65
						c0.07-0.38,0.28-0.53,0.67-0.52c1.39,0.07,2.13-0.8,2.48-2.04c0.54-1.94,1.8-7.35,2.15-9.3c0.26-1.25,0.25-2.15-1.5-2.24
						c-0.2-0.01-0.56-0.08-0.45-0.57c0.06-0.22,0.12-0.43,0.17-0.65c0.08-0.38,0.28-0.53,0.68-0.51c0.76,0.12,3.74,0.44,5.78,0.3
						c0.56,0.03,0.7,0.18,0.85,0.51c1.15,3.66,2.3,7.32,3.43,10.98c0.07-0.27,0.14-0.54,0.22-0.81
						C304.29,170.63,304.71,168.85,305.12,167.06z M297.11,178.38c0.03-0.12,0.05-0.23,0.08-0.35c0.25,0.04,0.33,0.18,0.31,0.4
						c0,0.05,0,0.09-0.01,0.14c-0.06,0.22-0.12,0.43-0.18,0.65c-0.08,0.38-0.28,0.53-0.67,0.51c-1.02-0.14-2.05-0.24-3.08-0.3
						c-1.06-0.05-2.09-0.05-3.15-0.02c-0.17-0.01-0.47-0.05-0.48-0.41c0.95-0.01,1.9-0.02,2.81,0.03c1.75,0.09,2.97,0.29,3.08,0.3
						C296.14,179.34,296.89,179.3,297.11,178.38z M294.15,164.13c-0.08-0.03-0.14-0.03-0.2-0.04c-0.17-0.01-0.45-0.05-0.46-0.35
						C293.91,163.82,294.07,163.94,294.15,164.13z M297.16,166.89c0.1,0.22,0.17,0.47,0.27,0.7c-0.64,2.43-1.58,6.54-1.86,8.17
						c-0.04,0.19-0.07,0.35-0.11,0.54c-0.13-0.09-0.24-0.2-0.22-0.61C295.28,174.95,296.42,169.75,297.16,166.89z M315.87,156.08
						c0.54,0.04,1.01,0.23,1.39,0.5c-0.2-0.04-0.36-0.08-0.56-0.09c-6.15-0.41-7.53,7.56-9.21,13.81c-0.48,1.89-0.94,3.86-1.36,5.75
						c-0.16,0.75-0.31,1.5-0.47,2.24c-0.1-0.25-0.16-0.53-0.23-0.75c0.17-0.78,0.34-1.57,0.51-2.35c0.5-2.27,0.92-4.1,1.36-5.72
						C308.97,163.19,310.26,155.71,315.87,156.08z M320.55,184.11c0-0.05,0.01-0.11,0.01-0.16c0.12,0.31,0.2,0.67,0.17,1.11
						c-0.21,2.83-4.4,5.16-8.5,4.89c-1.6-0.11-2.93-0.49-4.06-1.08c0.46,0.19,1.57,0.56,3.25,0.67
						C315.75,189.81,320.31,187.38,320.55,184.11z M322.62,158.42c0.01-0.14,0.02-0.27,0-0.38c0.14,0.39,0.22,0.87,0.19,1.33
						c-0.12,1.66-1.43,2.53-2.67,2.44c-0.51-0.04-0.98-0.21-1.33-0.48c0.17,0.04,0.34,0.05,0.51,0.06
						C320.5,161.47,322.45,160.76,322.62,158.42z"/>
					<path class="st1" d="M328.15,167.28c-0.36,2.44-3.49,2.85-4.27,1.18c0.45,0.03,0.85-0.4,0.96-0.78
						c0.34-1.12-0.18-2.54-2.12-2.6c-1.41-0.05-2.08,0.59-2.57,2.25c-0.56,1.93-1.87,6.94-2.26,8.88c-0.28,1.21-0.35,2.14,0.77,2.22
						c0.39,0.03,0.52,0.2,0.43,0.58c-0.06,0.21-0.12,0.43-0.19,0.64c-0.08,0.38-0.29,0.53-0.68,0.5c-2.04-0.34-4.1-0.48-6.22-0.43
						c-0.19-0.01-0.55-0.09-0.44-0.58c0.06-0.21,0.12-0.43,0.18-0.64c0.08-0.38,0.29-0.53,0.68-0.5c1.06,0.07,1.51-0.8,1.84-2.04
						c0.61-1.93,1.92-7.27,2.34-9.21c0.29-1.38,0.23-2.12-0.92-2.2c-1.35-0.09-2.84,1.43-3.66,2.82c-0.38,0.66-2.28,0.35-1.95-0.29
						c0.68-1.37,1.36-2.74,2.04-4.11c0.19-0.34,0.46-0.49,0.85-0.44c1.69,0.19,4.07,0.49,5.96,0.62c1.63,0.12,2.74,0.03,4.63,0.17
						C326.44,163.55,328.38,165.08,328.15,167.28z M316.14,165.52c-1.25,0.13-2.59,1.52-3.35,2.82c-0.16,0.29-0.62,0.4-1.07,0.37
						c-0.42-0.03-0.83-0.19-0.9-0.41c0.03,0,0.06,0,0.08,0.01c0.76,0.05,1.34-0.21,1.62-0.66c0.48-0.85,1.87-2.62,3.1-2.53
						C316.08,165.14,316.13,165.25,316.14,165.52z M319.46,179.78c0.03-0.13,0.06-0.25,0.08-0.38c0.25,0.07,0.32,0.19,0.3,0.43
						c0,0.05-0.01,0.09-0.01,0.14c-0.06,0.21-0.12,0.43-0.19,0.64c-0.08,0.38-0.29,0.53-0.68,0.5c-1.02-0.18-2.05-0.28-3.07-0.35
						c-1.06-0.07-2.09-0.12-3.15-0.08c-0.17-0.01-0.47-0.08-0.48-0.41c0.95-0.02,1.9,0.02,2.81,0.08c1.75,0.12,2.96,0.34,3.07,0.35
						C318.48,180.73,319.23,180.7,319.46,179.78z M322.83,165.64c0.51,0.04,0.89,0.18,1.15,0.44c-0.17-0.01-0.34-0.03-0.51-0.04
						c-1.41-0.05-2.08,0.59-2.56,2.25c-0.56,1.93-1.88,6.93-2.27,8.88c-0.04,0.22-0.09,0.43-0.13,0.62
						c-0.16-0.04-0.27-0.1-0.24-0.59c0.07-1.01,1.73-7.38,2.41-9.75c0.45-1.47,0.93-1.88,2-1.83
						C322.73,165.63,322.78,165.64,322.83,165.64z M328.72,166.86c0.17,0.4,0.22,0.84,0.18,1.3c0,0.03,0,0.05-0.01,0.08
						c-0.24,1.54-1.56,2.26-2.71,2.17c-0.45-0.03-0.86-0.18-1.18-0.47c0.14,0.04,0.25,0.05,0.36,0.05c1.06,0.08,3.17-0.55,3.35-2.78
						C328.73,167.11,328.74,166.97,328.72,166.86z"/>
				</g>
			</g>
		</g>
		<g>
			<polygon class="st1" points="122.16,167.87 125.91,167.48 125.81,184.58 			"/>
			
				<ellipse transform="matrix(0.9946 -0.1042 0.1042 0.9946 -16.4556 13.8166)" class="st2" cx="124.02" cy="164.42" rx="6.45" ry="5.62"/>
		</g>
	</g>
	<g>
		<text transform="matrix(1 0 0 1 199.3846 237.2707)" class="st0 st3 st4">May, 11 2024</text>
	</g>
	<g>
		<text transform="matrix(1 0 0 1 149.722 237.7297)" class="st2 st5 st6">Date</text>
	</g>
	<g>
		<text transform="matrix(1 0 0 1 199.3846 261.0373)" class="st0 st7 st4">1225 Koko Head Ave</text>
	</g>
	<g>
		<text transform="matrix(1 0 0 1 113.4221 259.5832)" class="st2 st5 st6">Location</text>
	</g>
	<g>
		<text transform="matrix(1 0 0 1 146.6023 281.4377)" class="st2 st5 st6">Time</text>
	</g>
	<g>
		<text transform="matrix(1 0 0 1 199.3846 280.9777)" class="st0 st7 st4">9:00am - 2:00pm</text>
	</g>
</g>
</svg>
