<?xml version="1.0" encoding="utf-8"?>
<!-- Generator: Adobe Illustrator 28.0.0, SVG Export Plug-In . SVG Version: 6.00 Build 0)  -->
<svg version="1.1" id="Layer_1" xmlns="http://www.w3.org/2000/svg" xmlns:xlink="http://www.w3.org/1999/xlink" x="0px" y="0px"
	 viewBox="0 0 36.58 39.23" style="enable-background:new 0 0 36.58 39.23;" xml:space="preserve">
<style type="text/css">
	.st0{fill:#2D7C74;}
</style>
<g>
	<path class="st0" d="M19.98,21.19c0,1.14-0.93,2.06-2.06,2.06c-1.14,0-2.06-0.93-2.06-2.06c0-1.14,0.93-2.06,2.06-2.06
		C19.05,19.13,19.98,20.05,19.98,21.19z"/>
	<path class="st0" d="M20.19,16.21h-4.54c-1.49,0-2.71,1.21-2.71,2.71v4.54c0,1.49,1.21,2.71,2.71,2.71h4.54
		c1.49,0,2.71-1.21,2.71-2.71v-4.54C22.89,17.43,21.68,16.21,20.19,16.21z M17.92,24.15c-1.63,0-2.96-1.33-2.96-2.96
		c0-1.63,1.33-2.96,2.96-2.96c1.63,0,2.96,1.33,2.96,2.96C20.88,22.82,19.55,24.15,17.92,24.15z M21.2,18.68
		c-0.43,0-0.77-0.34-0.77-0.77c0-0.43,0.34-0.77,0.77-0.77s0.77,0.34,0.77,0.77C21.97,18.33,21.63,18.68,21.2,18.68z"/>
	<path class="st0" d="M22.26,10.81h-8.7c-3.33,0-6.03,2.7-6.03,6.03v8.7c0,3.33,2.7,6.03,6.03,6.03h8.7c3.33,0,6.03-2.7,6.03-6.03
		v-8.7C28.29,13.51,25.59,10.81,22.26,10.81z M23.77,23.46c0,1.98-1.61,3.58-3.58,3.58h-4.54c-1.98,0-3.58-1.61-3.58-3.58v-4.54
		c0-1.98,1.61-3.58,3.58-3.58h4.54c1.98,0,3.58,1.61,3.58,3.58V23.46z"/>
</g>
</svg>
