<?xml version="1.0" encoding="utf-8"?>
<!-- Generator: Adobe Illustrator 28.0.0, SVG Export Plug-In . SVG Version: 6.00 Build 0)  -->
<svg version="1.1" id="Layer_1" xmlns="http://www.w3.org/2000/svg" xmlns:xlink="http://www.w3.org/1999/xlink" x="0px" y="0px"
	 viewBox="0 0 36.58 39.23" style="enable-background:new 0 0 36.58 39.23;" xml:space="preserve">
<style type="text/css">
	.st0{fill:#2D7C74;}
</style>
<g>
	<path class="st0" d="M21.21,18.38c0,1.77-1.44,3.21-3.21,3.21c-1.77,0-3.21-1.44-3.21-3.21c0-1.77,1.44-3.21,3.21-3.21
		C19.77,15.17,21.21,16.61,21.21,18.38z"/>
	<path class="st0" d="M21.53,10.64h-7.06c-2.32,0-4.21,1.89-4.21,4.21v7.06c0,2.32,1.89,4.21,4.21,4.21h7.06
		c2.32,0,4.21-1.89,4.21-4.21v-7.06C25.74,12.53,23.85,10.64,21.53,10.64z M18,22.99c-2.54,0-4.61-2.07-4.61-4.61
		c0-2.54,2.07-4.61,4.61-4.61c2.54,0,4.61,2.07,4.61,4.61C22.61,20.92,20.54,22.99,18,22.99z M23.11,14.47c-0.66,0-1.2-0.54-1.2-1.2
		c0-0.66,0.54-1.2,1.2-1.2c0.66,0,1.2,0.54,1.2,1.2C24.31,13.93,23.77,14.47,23.11,14.47z"/>
	<path class="st0" d="M24.77,2.23H11.23c-5.18,0-9.38,4.2-9.38,9.38v13.53c0,5.18,4.2,9.38,9.38,9.38h13.53
		c5.18,0,9.38-4.2,9.38-9.38V11.61C34.15,6.43,29.95,2.23,24.77,2.23z M27.11,21.91c0,3.07-2.5,5.58-5.58,5.58h-7.06
		c-3.07,0-5.58-2.5-5.58-5.58v-7.06c0-3.07,2.5-5.58,5.58-5.58h7.06c3.07,0,5.58,2.5,5.58,5.58V21.91z"/>
</g>
</svg>
