<?xml version="1.0" encoding="utf-8"?>
<!-- Generator: Adobe Illustrator 28.0.0, SVG Export Plug-In . SVG Version: 6.00 Build 0)  -->
<svg version="1.1" id="Layer_1" xmlns="http://www.w3.org/2000/svg" xmlns:xlink="http://www.w3.org/1999/xlink" x="0px" y="0px"
	 viewBox="0 0 184.05 184.05" style="enable-background:new 0 0 184.05 184.05;" xml:space="preserve">
<style type="text/css">
	.st0{fill:#2D7C74;}
</style>
<path class="st0" d="M104.73,91.93c0,7.49-6.09,13.58-13.57,13.58c-7.49,0-13.58-6.09-13.58-13.58c0-7.48,6.09-13.57,13.58-13.57
	C98.64,78.36,104.73,84.44,104.73,91.93z"/>
<path class="st0" d="M106.08,59.19H76.21c-9.82,0-17.81,7.99-17.81,17.81v29.87c0,9.82,7.99,17.81,17.81,17.81h29.87
	c9.82,0,17.81-7.99,17.81-17.81V77C123.89,67.18,115.9,59.19,106.08,59.19z M91.15,111.42c-10.75,0-19.49-8.74-19.49-19.49
	c0-10.74,8.74-19.48,19.49-19.48c10.74,0,19.48,8.74,19.48,19.48C110.64,102.68,101.89,111.42,91.15,111.42z M112.76,75.39
	c-2.8,0-5.07-2.27-5.07-5.07c0-2.8,2.27-5.07,5.07-5.07s5.07,2.27,5.07,5.07C117.83,73.13,115.56,75.39,112.76,75.39z"/>
<path class="st0" d="M119.77,23.64H62.54c-21.91,0-39.67,17.76-39.67,39.67v57.23c0,21.91,17.76,39.67,39.67,39.67h57.23
	c21.91,0,39.67-17.76,39.67-39.67V63.32C159.44,41.4,141.68,23.64,119.77,23.64z M129.67,106.87c0,13-10.58,23.58-23.58,23.58H76.21
	c-13,0-23.58-10.58-23.58-23.58V77c0-13,10.58-23.58,23.58-23.58h29.87c13,0,23.58,10.58,23.58,23.58V106.87z"/>
</svg>
